<?xml version="1.0" standalone="no"?>
<mlt LC_NUMERIC="C" version="6.26.0" title="Shotcut version ARCH-21.03.21" producer="main_bin">
  <profile description="PAL 4:3 DV or DVD" width="1920" height="1080" progressive="1" sample_aspect_num="1" sample_aspect_den="1" display_aspect_num="16" display_aspect_den="9" frame_rate_num="30" frame_rate_den="1" colorspace="709"/>
  <producer id="producer0" in="00:00:00.000" out="00:03:26.500">
    <property name="length">6196</property>
    <property name="eof">pause</property>
    <property name="resource">0.25:/home/xenvre/robot-code/optical-flow-6d-tracking-code/video/media/006_1.mp4</property>
    <property name="aspect_ratio">1</property>
    <property name="seekable">1</property>
    <property name="audio_index">-1</property>
    <property name="video_index">0</property>
    <property name="mute_on_pause">1</property>
    <property name="warp_speed">0.25</property>
    <property name="warp_resource">/home/xenvre/robot-code/optical-flow-6d-tracking-code/video/media/006_1.mp4</property>
    <property name="mlt_service">timewarp</property>
    <property name="shotcut:producer">avformat</property>
    <property name="video_delay">0</property>
    <property name="shotcut:hash">b43a4888cc1de9921cea528abafa1b99</property>
    <property name="shotcut:caption">006_1.mp4</property>
    <property name="global_feed">1</property>
    <property name="xml">was here</property>
  </producer>
  <producer id="producer1" in="00:00:00.000" out="00:01:43.233">
    <property name="length">3098</property>
    <property name="eof">pause</property>
    <property name="resource">0.5:/home/xenvre/robot-code/optical-flow-6d-tracking-code/video/media/006_0.mp4</property>
    <property name="aspect_ratio">1</property>
    <property name="seekable">1</property>
    <property name="audio_index">-1</property>
    <property name="video_index">0</property>
    <property name="mute_on_pause">1</property>
    <property name="warp_speed">0.5</property>
    <property name="warp_resource">/home/xenvre/robot-code/optical-flow-6d-tracking-code/video/media/006_0.mp4</property>
    <property name="mlt_service">timewarp</property>
    <property name="shotcut:producer">avformat</property>
    <property name="video_delay">0</property>
    <property name="shotcut:hash">c7f709fb526e4a0d962aa4194370e90a</property>
    <property name="shotcut:caption">006_0.mp4</property>
    <property name="global_feed">1</property>
    <property name="xml">was here</property>
  </producer>
  <producer id="producer2" in="00:00:00.000" out="00:00:51.600">
    <property name="length">00:00:51.633</property>
    <property name="eof">pause</property>
    <property name="resource">/home/xenvre/robot-code/optical-flow-6d-tracking-code/video/media/009_0.mp4</property>
    <property name="audio_index">-1</property>
    <property name="video_index">0</property>
    <property name="mute_on_pause">0</property>
    <property name="mlt_service">avformat-novalidate</property>
    <property name="seekable">1</property>
    <property name="aspect_ratio">1</property>
    <property name="creation_time">2021-05-21T16:14:41</property>
    <property name="shotcut:hash">249f6ba3aec17ee3c8265b616a9ceff6</property>
    <property name="global_feed">1</property>
    <property name="xml">was here</property>
  </producer>
  <producer id="producer3" in="00:00:00.000" out="00:00:51.600">
    <property name="length">00:00:51.633</property>
    <property name="eof">pause</property>
    <property name="resource">/home/xenvre/robot-code/optical-flow-6d-tracking-code/video/media/009_1.mp4</property>
    <property name="audio_index">-1</property>
    <property name="video_index">0</property>
    <property name="mute_on_pause">0</property>
    <property name="mlt_service">avformat-novalidate</property>
    <property name="seekable">1</property>
    <property name="aspect_ratio">1</property>
    <property name="creation_time">2021-05-22T11:32:14</property>
    <property name="shotcut:hash">6ae5f2be5cc7aa3c4df69c684cbb2c88</property>
    <property name="global_feed">1</property>
    <property name="xml">was here</property>
    <property name="ignore_points">1</property>
    <property name="shotcut:caption">009_1.mp4</property>
  </producer>
  <producer id="producer4" in="00:00:00.000" out="00:00:51.600">
    <property name="length">00:00:51.633</property>
    <property name="eof">pause</property>
    <property name="resource">/home/xenvre/robot-code/optical-flow-6d-tracking-code/video/media/003_real_0.mp4</property>
    <property name="audio_index">-1</property>
    <property name="video_index">0</property>
    <property name="mute_on_pause">0</property>
    <property name="mlt_service">avformat-novalidate</property>
    <property name="seekable">1</property>
    <property name="aspect_ratio">1</property>
    <property name="creation_time">2021-05-21T16:34:26</property>
    <property name="shotcut:hash">6d6631e7608bcd8d99048331606d159d</property>
    <property name="global_feed">1</property>
    <property name="xml">was here</property>
  </producer>
  <producer id="producer5" in="00:00:00.000" out="00:00:51.600">
    <property name="length">00:00:51.633</property>
    <property name="eof">pause</property>
    <property name="resource">/home/xenvre/robot-code/optical-flow-6d-tracking-code/video/media/003_real_1.mp4</property>
    <property name="audio_index">-1</property>
    <property name="video_index">0</property>
    <property name="mute_on_pause">0</property>
    <property name="mlt_service">avformat-novalidate</property>
    <property name="seekable">1</property>
    <property name="aspect_ratio">1</property>
    <property name="creation_time">2021-05-22T11:34:41</property>
    <property name="shotcut:hash">c006d3d7fe5669134a265ad455a9a27a</property>
    <property name="global_feed">1</property>
    <property name="xml">was here</property>
  </producer>
  <playlist id="main_bin">
    <property name="xml_retain">1</property>
    <entry producer="producer0" in="00:00:00.000" out="00:03:26.500"/>
    <entry producer="producer1" in="00:00:00.000" out="00:01:43.233"/>
    <entry producer="producer2" in="00:00:00.000" out="00:00:51.600"/>
    <entry producer="producer3" in="00:00:00.000" out="00:00:51.600"/>
    <entry producer="producer4" in="00:00:00.000" out="00:00:51.600"/>
    <entry producer="producer5" in="00:00:00.000" out="00:00:51.600"/>
  </playlist>
  <producer id="black" in="00:00:00.000" out="00:04:57.967">
    <property name="length">00:04:58.000</property>
    <property name="eof">pause</property>
    <property name="resource">0</property>
    <property name="aspect_ratio">1</property>
    <property name="mlt_service">color</property>
    <property name="mlt_image_format">rgb24a</property>
    <property name="set.test_audio">0</property>
  </producer>
  <playlist id="background">
    <entry producer="black" in="00:00:00.000" out="00:04:57.967"/>
  </playlist>
  <producer id="producer6" in="00:00:00.000" out="03:59:59.967">
    <property name="length">04:00:00.000</property>
    <property name="eof">pause</property>
    <property name="resource">/home/xenvre/robot-code/optical-flow-6d-tracking-code/video/media/slide_video/Slide1.PNG</property>
    <property name="ttl">1</property>
    <property name="aspect_ratio">1</property>
    <property name="progressive">1</property>
    <property name="seekable">1</property>
    <property name="mlt_service">qimage</property>
    <property name="creation_time">2021-05-22T07:00:58</property>
    <property name="shotcut:caption">Slide1.PNG</property>
    <property name="shotcut:hash">37875db4b13312de58adb1d452fb6d42</property>
    <property name="ignore_points">0</property>
    <property name="global_feed">1</property>
    <property name="xml">was here</property>
  </producer>
  <producer id="producer7" in="00:00:00.000" out="03:59:59.967">
    <property name="length">04:00:00.000</property>
    <property name="eof">pause</property>
    <property name="resource">/home/xenvre/robot-code/optical-flow-6d-tracking-code/video/media/slide_video/Slide2.PNG</property>
    <property name="ttl">1</property>
    <property name="aspect_ratio">1</property>
    <property name="progressive">1</property>
    <property name="seekable">1</property>
    <property name="mlt_service">qimage</property>
    <property name="creation_time">2021-05-22T07:00:58</property>
    <property name="shotcut:caption">Slide2.PNG</property>
    <property name="shotcut:hash">810b65b36c07c80297dc3ecbb798884c</property>
    <property name="ignore_points">0</property>
    <property name="global_feed">1</property>
    <property name="xml">was here</property>
  </producer>
  <producer id="producer8" in="00:00:00.000" out="03:59:59.967">
    <property name="length">04:00:00.000</property>
    <property name="eof">pause</property>
    <property name="resource">/home/xenvre/robot-code/optical-flow-6d-tracking-code/video/media/slide_video/Slide3.PNG</property>
    <property name="ttl">1</property>
    <property name="aspect_ratio">1</property>
    <property name="progressive">1</property>
    <property name="seekable">1</property>
    <property name="mlt_service">qimage</property>
    <property name="creation_time">2021-05-22T07:00:58</property>
    <property name="shotcut:caption">Slide3.PNG</property>
    <property name="shotcut:hash">19257ef1474f546cb02edac5428d1aa4</property>
    <property name="ignore_points">0</property>
    <property name="global_feed">1</property>
    <property name="xml">was here</property>
  </producer>
  <producer id="producer9" in="00:00:00.000" out="03:59:59.967">
    <property name="length">04:00:00.000</property>
    <property name="eof">pause</property>
    <property name="resource">/home/xenvre/robot-code/optical-flow-6d-tracking-code/video/media/slide_video/Slide4.PNG</property>
    <property name="ttl">1</property>
    <property name="aspect_ratio">1</property>
    <property name="progressive">1</property>
    <property name="seekable">1</property>
    <property name="mlt_service">qimage</property>
    <property name="creation_time">2021-05-22T07:01:00</property>
    <property name="shotcut:caption">Slide4.PNG</property>
    <property name="shotcut:hash">b6de02b7188c6da16e597203e0334b5f</property>
    <property name="ignore_points">0</property>
    <property name="global_feed">1</property>
    <property name="xml">was here</property>
  </producer>
  <producer id="producer10" in="00:00:00.000" out="03:59:59.967">
    <property name="length">04:00:00.000</property>
    <property name="eof">pause</property>
    <property name="resource">/home/xenvre/robot-code/optical-flow-6d-tracking-code/video/media/slide_video/Slide5.PNG</property>
    <property name="ttl">1</property>
    <property name="aspect_ratio">1</property>
    <property name="progressive">1</property>
    <property name="seekable">1</property>
    <property name="mlt_service">qimage</property>
    <property name="creation_time">2021-05-22T07:01:00</property>
    <property name="shotcut:caption">Slide5.PNG</property>
    <property name="shotcut:hash">0d6384f447508e13915b2fbd0c82615c</property>
    <property name="ignore_points">0</property>
    <property name="global_feed">1</property>
    <property name="xml">was here</property>
  </producer>
  <producer id="producer11" in="00:00:00.000" out="03:59:59.967">
    <property name="length">04:00:00.000</property>
    <property name="eof">pause</property>
    <property name="resource">/home/xenvre/robot-code/optical-flow-6d-tracking-code/video/media/slide_video/Slide6.PNG</property>
    <property name="ttl">1</property>
    <property name="aspect_ratio">1</property>
    <property name="progressive">1</property>
    <property name="seekable">1</property>
    <property name="mlt_service">qimage</property>
    <property name="creation_time">2021-05-22T07:01:00</property>
    <property name="shotcut:caption">Slide6.PNG</property>
    <property name="shotcut:hash">7e3560642f4b369e75b35385802e6c6d</property>
    <property name="ignore_points">0</property>
    <property name="global_feed">1</property>
    <property name="xml">was here</property>
  </producer>
  <producer id="producer12" in="00:00:00.000" out="03:59:59.967">
    <property name="length">04:00:00.000</property>
    <property name="eof">pause</property>
    <property name="resource">/home/xenvre/robot-code/optical-flow-6d-tracking-code/video/media/slide_video/Slide7.PNG</property>
    <property name="ttl">1</property>
    <property name="aspect_ratio">1</property>
    <property name="progressive">1</property>
    <property name="seekable">1</property>
    <property name="mlt_service">qimage</property>
    <property name="creation_time">2021-05-22T07:01:00</property>
    <property name="shotcut:caption">Slide7.PNG</property>
    <property name="shotcut:hash">57dd89f165baa80dd0619963bb1a1a21</property>
    <property name="ignore_points">0</property>
    <property name="global_feed">1</property>
    <property name="xml">was here</property>
  </producer>
  <producer id="producer13" in="00:00:00.000" out="03:59:59.967">
    <property name="length">04:00:00.000</property>
    <property name="eof">pause</property>
    <property name="resource">/home/xenvre/robot-code/optical-flow-6d-tracking-code/video/media/slide_video/Slide8.PNG</property>
    <property name="ttl">1</property>
    <property name="aspect_ratio">1</property>
    <property name="progressive">1</property>
    <property name="seekable">1</property>
    <property name="mlt_service">qimage</property>
    <property name="creation_time">2021-05-22T07:01:00</property>
    <property name="shotcut:caption">Slide8.PNG</property>
    <property name="shotcut:hash">9e33c1bd39b3d4be52a43298ab9da0b9</property>
    <property name="ignore_points">0</property>
    <property name="global_feed">1</property>
    <property name="xml">was here</property>
  </producer>
  <producer id="producer14" in="00:00:00.000" out="03:59:59.967">
    <property name="length">04:00:00.000</property>
    <property name="eof">pause</property>
    <property name="resource">/home/xenvre/robot-code/optical-flow-6d-tracking-code/video/media/slide_video/Slide9.PNG</property>
    <property name="ttl">1</property>
    <property name="aspect_ratio">1</property>
    <property name="progressive">1</property>
    <property name="seekable">1</property>
    <property name="mlt_service">qimage</property>
    <property name="creation_time">2021-05-22T07:01:00</property>
    <property name="shotcut:caption">Slide9.PNG</property>
    <property name="shotcut:hash">c7cea2cf4c5ca718e963d9a942f3fe36</property>
    <property name="ignore_points">0</property>
    <property name="global_feed">1</property>
    <property name="xml">was here</property>
  </producer>
  <producer id="producer15" in="00:00:00.000" out="03:59:59.967">
    <property name="length">04:00:00.000</property>
    <property name="eof">pause</property>
    <property name="resource">/home/xenvre/robot-code/optical-flow-6d-tracking-code/video/media/slide_video/Slide10.PNG</property>
    <property name="ttl">1</property>
    <property name="aspect_ratio">1</property>
    <property name="progressive">1</property>
    <property name="seekable">1</property>
    <property name="mlt_service">qimage</property>
    <property name="creation_time">2021-05-22T07:01:00</property>
    <property name="shotcut:caption">Slide10.PNG</property>
    <property name="shotcut:hash">c332a4fb3d506f82fbcf3e5f02e31bc5</property>
    <property name="ignore_points">0</property>
    <property name="global_feed">1</property>
    <property name="xml">was here</property>
  </producer>
  <producer id="producer16" in="00:00:00.000" out="03:59:59.967">
    <property name="length">04:00:00.000</property>
    <property name="eof">pause</property>
    <property name="resource">/home/xenvre/robot-code/optical-flow-6d-tracking-code/video/media/slide_video/Slide11.PNG</property>
    <property name="ttl">1</property>
    <property name="aspect_ratio">1</property>
    <property name="progressive">1</property>
    <property name="seekable">1</property>
    <property name="mlt_service">qimage</property>
    <property name="creation_time">2021-05-22T07:01:00</property>
    <property name="shotcut:caption">Slide11.PNG</property>
    <property name="shotcut:hash">287f7ce2646d50eadaace161186fac8d</property>
    <property name="ignore_points">0</property>
    <property name="global_feed">1</property>
    <property name="xml">was here</property>
  </producer>
  <producer id="producer17" in="00:00:00.000" out="03:59:59.967">
    <property name="length">04:00:00.000</property>
    <property name="eof">pause</property>
    <property name="resource">/home/xenvre/robot-code/optical-flow-6d-tracking-code/video/media/slide_video/Slide12.PNG</property>
    <property name="ttl">1</property>
    <property name="aspect_ratio">1</property>
    <property name="progressive">1</property>
    <property name="seekable">1</property>
    <property name="mlt_service">qimage</property>
    <property name="creation_time">2021-05-22T07:01:00</property>
    <property name="shotcut:caption">Slide12.PNG</property>
    <property name="shotcut:hash">ec4436b6f8889226dac88edbc8fce84e</property>
    <property name="ignore_points">0</property>
    <property name="global_feed">1</property>
    <property name="xml">was here</property>
  </producer>
  <producer id="producer18" in="00:00:00.000" out="00:00:51.600">
    <property name="length">00:00:51.633</property>
    <property name="eof">pause</property>
    <property name="resource">/home/xenvre/robot-code/optical-flow-6d-tracking-code/video/media/003_0.mp4</property>
    <property name="audio_index">-1</property>
    <property name="video_index">0</property>
    <property name="mute_on_pause">0</property>
    <property name="mlt_service">avformat-novalidate</property>
    <property name="seekable">1</property>
    <property name="aspect_ratio">1</property>
    <property name="creation_time">2021-05-22T11:18:50</property>
    <property name="shotcut:hash">d9967b9701a64d92058305172779f300</property>
    <property name="ignore_points">0</property>
    <property name="shotcut:caption">003_0.mp4</property>
    <property name="global_feed">1</property>
    <property name="xml">was here</property>
    <filter id="filter0" in="00:00:10.567" out="00:00:17.000">
      <property name="start">1</property>
      <property name="level">00:00:00.000=0;00:00:00.967=1</property>
      <property name="mlt_service">brightness</property>
      <property name="shotcut:filter">fadeInBrightness</property>
      <property name="alpha">1</property>
      <property name="shotcut:animIn">00:00:01.000</property>
    </filter>
  </producer>
  <producer id="producer19" in="00:00:00.000" out="03:59:59.967">
    <property name="length">04:00:00.000</property>
    <property name="eof">pause</property>
    <property name="resource">/home/xenvre/robot-code/optical-flow-6d-tracking-code/video/media/still1.png</property>
    <property name="ttl">1</property>
    <property name="aspect_ratio">1</property>
    <property name="progressive">1</property>
    <property name="seekable">1</property>
    <property name="mlt_service">qimage</property>
    <property name="creation_time">2021-05-22T11:59:20</property>
    <property name="shotcut:caption">still1.png</property>
    <property name="shotcut:hash">e4644b5d4ef9f365443c8442df81b728</property>
    <property name="ignore_points">0</property>
    <property name="global_feed">1</property>
    <property name="xml">was here</property>
  </producer>
  <producer id="producer20" in="00:00:00.000" out="00:00:51.600">
    <property name="length">00:00:51.633</property>
    <property name="eof">pause</property>
    <property name="resource">/home/xenvre/robot-code/optical-flow-6d-tracking-code/video/media/003_0.mp4</property>
    <property name="audio_index">-1</property>
    <property name="video_index">0</property>
    <property name="mute_on_pause">0</property>
    <property name="mlt_service">avformat-novalidate</property>
    <property name="seekable">1</property>
    <property name="aspect_ratio">1</property>
    <property name="creation_time">2021-05-22T11:18:50</property>
    <property name="shotcut:hash">d9967b9701a64d92058305172779f300</property>
    <property name="ignore_points">0</property>
    <property name="shotcut:caption">003_0.mp4</property>
    <property name="global_feed">1</property>
    <property name="xml">was here</property>
  </producer>
  <tractor id="tractor0" global_feed="1" in="00:00:00.000" out="00:00:00.333">
    <property name="shotcut:transition">lumaMix</property>
    <track producer="producer19" in="00:00:00.067" out="00:00:00.400"/>
    <track producer="producer20" in="00:00:17.033" out="00:00:17.367"/>
    <transition id="transition0" out="00:00:00.333">
      <property name="a_track">0</property>
      <property name="b_track">1</property>
      <property name="factory">loader</property>
      <property name="mlt_service">luma</property>
      <property name="alpha_over">1</property>
    </transition>
    <transition id="transition1" out="00:00:00.333">
      <property name="a_track">0</property>
      <property name="b_track">1</property>
      <property name="mlt_service">mix</property>
      <property name="start">-1</property>
      <property name="accepts_blanks">1</property>
    </transition>
  </tractor>
  <producer id="producer21" in="00:00:00.000" out="03:59:59.967">
    <property name="length">04:00:00.000</property>
    <property name="eof">pause</property>
    <property name="resource">/home/xenvre/robot-code/optical-flow-6d-tracking-code/video/media/still3.png</property>
    <property name="ttl">1</property>
    <property name="aspect_ratio">1</property>
    <property name="progressive">1</property>
    <property name="seekable">1</property>
    <property name="mlt_service">qimage</property>
    <property name="creation_time">2021-05-22T12:04:59</property>
    <property name="shotcut:caption">still3.png</property>
    <property name="shotcut:hash">cb2fb69fe2257de9b568d3b8b9bdef3a</property>
    <property name="ignore_points">0</property>
    <property name="global_feed">1</property>
    <property name="xml">was here</property>
  </producer>
  <producer id="producer22" in="00:00:00.000" out="00:00:51.600">
    <property name="length">00:00:51.633</property>
    <property name="eof">pause</property>
    <property name="resource">/home/xenvre/robot-code/optical-flow-6d-tracking-code/video/media/003_0.mp4</property>
    <property name="audio_index">-1</property>
    <property name="video_index">0</property>
    <property name="mute_on_pause">0</property>
    <property name="mlt_service">avformat-novalidate</property>
    <property name="seekable">1</property>
    <property name="aspect_ratio">1</property>
    <property name="creation_time">2021-05-22T11:18:50</property>
    <property name="shotcut:hash">d9967b9701a64d92058305172779f300</property>
    <property name="ignore_points">0</property>
    <property name="shotcut:caption">003_0.mp4</property>
    <property name="global_feed">1</property>
    <property name="xml">was here</property>
  </producer>
  <tractor id="tractor1" global_feed="1" in="00:00:00.000" out="00:00:00.333">
    <property name="shotcut:transition">lumaMix</property>
    <track producer="producer21" in="00:00:00.067" out="00:00:00.400"/>
    <track producer="producer22" in="00:00:26.267" out="00:00:26.600"/>
    <transition id="transition2" out="00:00:00.333">
      <property name="a_track">0</property>
      <property name="b_track">1</property>
      <property name="factory">loader</property>
      <property name="mlt_service">luma</property>
      <property name="alpha_over">1</property>
    </transition>
    <transition id="transition3" out="00:00:00.333">
      <property name="a_track">0</property>
      <property name="b_track">1</property>
      <property name="mlt_service">mix</property>
      <property name="start">-1</property>
      <property name="accepts_blanks">1</property>
    </transition>
  </tractor>
  <producer id="producer23" in="00:00:00.000" out="03:59:59.967">
    <property name="length">04:00:00.000</property>
    <property name="eof">pause</property>
    <property name="resource">/home/xenvre/robot-code/optical-flow-6d-tracking-code/video/media/still5.png</property>
    <property name="ttl">1</property>
    <property name="aspect_ratio">1</property>
    <property name="progressive">1</property>
    <property name="seekable">1</property>
    <property name="mlt_service">qimage</property>
    <property name="creation_time">2021-05-22T12:11:37</property>
    <property name="shotcut:caption">still5.png</property>
    <property name="shotcut:hash">dec6bab741c3009b170ac465b0a047a4</property>
    <property name="ignore_points">0</property>
    <property name="global_feed">1</property>
    <property name="xml">was here</property>
  </producer>
  <producer id="producer24" in="00:00:00.000" out="00:00:51.600">
    <property name="length">00:00:51.633</property>
    <property name="eof">pause</property>
    <property name="resource">/home/xenvre/robot-code/optical-flow-6d-tracking-code/video/media/003_0.mp4</property>
    <property name="audio_index">-1</property>
    <property name="video_index">0</property>
    <property name="mute_on_pause">0</property>
    <property name="mlt_service">avformat-novalidate</property>
    <property name="seekable">1</property>
    <property name="aspect_ratio">1</property>
    <property name="creation_time">2021-05-22T11:18:50</property>
    <property name="shotcut:hash">d9967b9701a64d92058305172779f300</property>
    <property name="ignore_points">0</property>
    <property name="shotcut:caption">003_0.mp4</property>
    <property name="global_feed">1</property>
    <property name="xml">was here</property>
  </producer>
  <tractor id="tractor2" global_feed="1" in="00:00:00.000" out="00:00:00.333">
    <property name="shotcut:transition">lumaMix</property>
    <track producer="producer23" in="00:00:00.067" out="00:00:00.400"/>
    <track producer="producer24" in="00:00:41.600" out="00:00:41.933"/>
    <transition id="transition4" out="00:00:00.333">
      <property name="a_track">0</property>
      <property name="b_track">1</property>
      <property name="factory">loader</property>
      <property name="mlt_service">luma</property>
      <property name="alpha_over">1</property>
    </transition>
    <transition id="transition5" out="00:00:00.333">
      <property name="a_track">0</property>
      <property name="b_track">1</property>
      <property name="mlt_service">mix</property>
      <property name="start">-1</property>
      <property name="accepts_blanks">1</property>
    </transition>
  </tractor>
  <producer id="producer25" in="00:00:00.000" out="03:59:59.967">
    <property name="length">04:00:00.000</property>
    <property name="eof">pause</property>
    <property name="resource">/home/xenvre/robot-code/optical-flow-6d-tracking-code/video/media/still7.png</property>
    <property name="ttl">1</property>
    <property name="aspect_ratio">1</property>
    <property name="progressive">1</property>
    <property name="seekable">1</property>
    <property name="mlt_service">qimage</property>
    <property name="creation_time">2021-05-22T12:15:04</property>
    <property name="shotcut:caption">still7.png</property>
    <property name="shotcut:hash">44228057a12b4741807d8d2afed927a6</property>
    <property name="ignore_points">0</property>
    <property name="global_feed">1</property>
    <property name="xml">was here</property>
    <filter id="filter1" out="00:00:01.700">
      <property name="start">1</property>
      <property name="level">00:00:00.733=1;00:00:01.700=0</property>
      <property name="mlt_service">brightness</property>
      <property name="shotcut:filter">fadeOutBrightness</property>
      <property name="alpha">1</property>
      <property name="shotcut:animOut">00:00:01.000</property>
    </filter>
  </producer>
  <producer id="producer26" in="00:00:00.000" out="00:00:51.600">
    <property name="length">00:00:51.633</property>
    <property name="eof">pause</property>
    <property name="resource">/home/xenvre/robot-code/optical-flow-6d-tracking-code/video/media/006_0.mp4</property>
    <property name="audio_index">-1</property>
    <property name="video_index">0</property>
    <property name="mute_on_pause">0</property>
    <property name="mlt_service">avformat-novalidate</property>
    <property name="seekable">1</property>
    <property name="aspect_ratio">1</property>
    <property name="creation_time">2021-05-21T16:06:23</property>
    <property name="shotcut:hash">c7f709fb526e4a0d962aa4194370e90a</property>
    <property name="ignore_points">0</property>
    <property name="shotcut:caption">006_0.mp4</property>
    <property name="global_feed">1</property>
    <property name="xml">was here</property>
    <filter id="filter2" in="00:00:17.633" out="00:00:25.400">
      <property name="start">1</property>
      <property name="level">00:00:00.000=0;00:00:00.967=1</property>
      <property name="mlt_service">brightness</property>
      <property name="shotcut:filter">fadeInBrightness</property>
      <property name="alpha">1</property>
      <property name="shotcut:animIn">00:00:01.000</property>
    </filter>
  </producer>
  <tractor id="tractor3" global_feed="1" in="00:00:00.000" out="00:00:00.400">
    <property name="shotcut:transition">lumaMix</property>
    <track producer="producer25" in="00:00:01.300" out="00:00:01.700"/>
    <track producer="producer26" in="00:00:17.633" out="00:00:18.033"/>
    <transition id="transition6" out="00:00:00.400">
      <property name="a_track">0</property>
      <property name="b_track">1</property>
      <property name="factory">loader</property>
      <property name="mlt_service">luma</property>
      <property name="alpha_over">1</property>
    </transition>
    <transition id="transition7" out="00:00:00.400">
      <property name="a_track">0</property>
      <property name="b_track">1</property>
      <property name="mlt_service">mix</property>
      <property name="start">-1</property>
      <property name="accepts_blanks">1</property>
    </transition>
  </tractor>
  <producer id="producer27" in="00:00:00.000" out="03:59:59.967">
    <property name="length">04:00:00.000</property>
    <property name="eof">pause</property>
    <property name="resource">/home/xenvre/robot-code/optical-flow-6d-tracking-code/video/media/still9.png</property>
    <property name="ttl">1</property>
    <property name="aspect_ratio">1</property>
    <property name="progressive">1</property>
    <property name="seekable">1</property>
    <property name="mlt_service">qimage</property>
    <property name="creation_time">2021-05-22T12:27:54</property>
    <property name="shotcut:caption">still9.png</property>
    <property name="shotcut:hash">08c1ec9e2c68351c96837809053eb596</property>
    <property name="ignore_points">0</property>
    <property name="global_feed">1</property>
    <property name="xml">was here</property>
  </producer>
  <producer id="producer28" in="00:00:00.000" out="00:00:51.600">
    <property name="length">00:00:51.633</property>
    <property name="eof">pause</property>
    <property name="resource">/home/xenvre/robot-code/optical-flow-6d-tracking-code/video/media/006_0.mp4</property>
    <property name="audio_index">-1</property>
    <property name="video_index">0</property>
    <property name="mute_on_pause">0</property>
    <property name="mlt_service">avformat-novalidate</property>
    <property name="seekable">1</property>
    <property name="aspect_ratio">1</property>
    <property name="creation_time">2021-05-21T16:06:23</property>
    <property name="shotcut:hash">c7f709fb526e4a0d962aa4194370e90a</property>
    <property name="ignore_points">0</property>
    <property name="shotcut:caption">006_0.mp4</property>
    <property name="global_feed">1</property>
    <property name="xml">was here</property>
  </producer>
  <tractor id="tractor4" global_feed="1" in="00:00:00.000" out="00:00:00.333">
    <property name="shotcut:transition">lumaMix</property>
    <track producer="producer27" in="00:00:00.067" out="00:00:00.400"/>
    <track producer="producer28" in="00:00:31.933" out="00:00:32.267"/>
    <transition id="transition8" out="00:00:00.333">
      <property name="a_track">0</property>
      <property name="b_track">1</property>
      <property name="factory">loader</property>
      <property name="mlt_service">luma</property>
      <property name="alpha_over">1</property>
    </transition>
    <transition id="transition9" out="00:00:00.333">
      <property name="a_track">0</property>
      <property name="b_track">1</property>
      <property name="mlt_service">mix</property>
      <property name="start">-1</property>
      <property name="accepts_blanks">1</property>
    </transition>
  </tractor>
  <producer id="producer29" in="00:00:00.000" out="03:59:59.967">
    <property name="length">04:00:00.000</property>
    <property name="eof">pause</property>
    <property name="resource">/home/xenvre/robot-code/optical-flow-6d-tracking-code/video/media/still11.png</property>
    <property name="ttl">1</property>
    <property name="aspect_ratio">1</property>
    <property name="progressive">1</property>
    <property name="seekable">1</property>
    <property name="mlt_service">qimage</property>
    <property name="creation_time">2021-05-22T12:32:29</property>
    <property name="shotcut:caption">still11.png</property>
    <property name="shotcut:hash">241b66f8a2518c41a99b6baf6ecca806</property>
    <property name="ignore_points">0</property>
    <property name="global_feed">1</property>
    <property name="xml">was here</property>
  </producer>
  <producer id="producer30" in="00:00:00.000" out="00:00:51.600">
    <property name="length">00:00:51.633</property>
    <property name="eof">pause</property>
    <property name="resource">/home/xenvre/robot-code/optical-flow-6d-tracking-code/video/media/006_0.mp4</property>
    <property name="audio_index">-1</property>
    <property name="video_index">0</property>
    <property name="mute_on_pause">0</property>
    <property name="mlt_service">avformat-novalidate</property>
    <property name="seekable">1</property>
    <property name="aspect_ratio">1</property>
    <property name="creation_time">2021-05-21T16:06:23</property>
    <property name="shotcut:hash">c7f709fb526e4a0d962aa4194370e90a</property>
    <property name="ignore_points">0</property>
    <property name="shotcut:caption">006_0.mp4</property>
    <property name="global_feed">1</property>
    <property name="xml">was here</property>
  </producer>
  <tractor id="tractor5" global_feed="1" in="00:00:00.000" out="00:00:00.333">
    <property name="shotcut:transition">lumaMix</property>
    <track producer="producer29" in="00:00:00.067" out="00:00:00.400"/>
    <track producer="producer30" in="00:00:42.200" out="00:00:42.533"/>
    <transition id="transition10" out="00:00:00.333">
      <property name="a_track">0</property>
      <property name="b_track">1</property>
      <property name="factory">loader</property>
      <property name="mlt_service">luma</property>
      <property name="alpha_over">1</property>
    </transition>
    <transition id="transition11" out="00:00:00.333">
      <property name="a_track">0</property>
      <property name="b_track">1</property>
      <property name="mlt_service">mix</property>
      <property name="start">-1</property>
      <property name="accepts_blanks">1</property>
    </transition>
  </tractor>
  <producer id="producer31" in="00:00:00.000" out="03:59:59.967">
    <property name="length">04:00:00.000</property>
    <property name="eof">pause</property>
    <property name="resource">/home/xenvre/robot-code/optical-flow-6d-tracking-code/video/media/still13.png</property>
    <property name="ttl">1</property>
    <property name="aspect_ratio">1</property>
    <property name="progressive">1</property>
    <property name="seekable">1</property>
    <property name="mlt_service">qimage</property>
    <property name="creation_time">2021-05-22T12:49:28</property>
    <property name="shotcut:caption">still13.png</property>
    <property name="shotcut:hash">a6e1dce5e40b8513976e15ccd8b05dd7</property>
    <property name="ignore_points">0</property>
    <property name="global_feed">1</property>
    <property name="xml">was here</property>
  </producer>
  <producer id="producer32" in="00:00:00.000" out="00:03:26.500">
    <property name="length">00:03:26.533</property>
    <property name="eof">pause</property>
    <property name="resource">0.25:/home/xenvre/robot-code/optical-flow-6d-tracking-code/video/media/006_0.mp4</property>
    <property name="aspect_ratio">1</property>
    <property name="seekable">1</property>
    <property name="audio_index">-1</property>
    <property name="video_index">0</property>
    <property name="mute_on_pause">1</property>
    <property name="warp_speed">0.25</property>
    <property name="warp_resource">/home/xenvre/robot-code/optical-flow-6d-tracking-code/video/media/006_0.mp4</property>
    <property name="mlt_service">timewarp</property>
    <property name="shotcut:producer">avformat</property>
    <property name="video_delay">0</property>
    <property name="shotcut:hash">c7f709fb526e4a0d962aa4194370e90a</property>
    <property name="shotcut:caption">006_0.mp4 (0.25x)</property>
    <property name="global_feed">1</property>
    <property name="xml">was here</property>
  </producer>
  <producer id="producer33" in="00:00:00.000" out="03:59:59.967">
    <property name="length">04:00:00.000</property>
    <property name="eof">pause</property>
    <property name="resource">/home/xenvre/robot-code/optical-flow-6d-tracking-code/video/media/still15.png</property>
    <property name="ttl">1</property>
    <property name="aspect_ratio">1</property>
    <property name="progressive">1</property>
    <property name="seekable">1</property>
    <property name="mlt_service">qimage</property>
    <property name="creation_time">2021-05-22T12:53:29</property>
    <property name="shotcut:caption">still15.png</property>
    <property name="shotcut:hash">7c7ce097e5516df67a370d9bc9e33c78</property>
    <property name="ignore_points">0</property>
    <property name="global_feed">1</property>
    <property name="xml">was here</property>
    <filter id="filter3" out="00:00:02.267">
      <property name="start">1</property>
      <property name="level">00:00:01.300=1;00:00:02.267=0</property>
      <property name="mlt_service">brightness</property>
      <property name="shotcut:filter">fadeOutBrightness</property>
      <property name="alpha">1</property>
      <property name="shotcut:animOut">00:00:01.000</property>
    </filter>
  </producer>
  <producer id="producer34" in="00:00:00.000" out="00:00:51.600">
    <property name="length">00:00:51.633</property>
    <property name="eof">pause</property>
    <property name="resource">/home/xenvre/robot-code/optical-flow-6d-tracking-code/video/media/009_0.mp4</property>
    <property name="audio_index">-1</property>
    <property name="video_index">0</property>
    <property name="mute_on_pause">0</property>
    <property name="mlt_service">avformat-novalidate</property>
    <property name="seekable">1</property>
    <property name="aspect_ratio">1</property>
    <property name="creation_time">2021-05-21T16:14:41</property>
    <property name="shotcut:hash">249f6ba3aec17ee3c8265b616a9ceff6</property>
    <property name="ignore_points">0</property>
    <property name="shotcut:caption">009_0.mp4</property>
    <property name="global_feed">1</property>
    <property name="xml">was here</property>
    <filter id="filter4" in="00:00:02.033" out="00:00:11.500">
      <property name="start">1</property>
      <property name="level">00:00:00.000=0;00:00:00.967=1</property>
      <property name="mlt_service">brightness</property>
      <property name="shotcut:filter">fadeInBrightness</property>
      <property name="alpha">1</property>
      <property name="shotcut:animIn">00:00:01.000</property>
    </filter>
  </producer>
  <tractor id="tractor6" global_feed="1" in="00:00:00.000" out="00:00:00.533">
    <property name="shotcut:transition">lumaMix</property>
    <track producer="producer33" in="00:00:01.733" out="00:00:02.267"/>
    <track producer="producer34" in="00:00:02.033" out="00:00:02.567"/>
    <transition id="transition12" out="00:00:00.533">
      <property name="a_track">0</property>
      <property name="b_track">1</property>
      <property name="factory">loader</property>
      <property name="mlt_service">luma</property>
      <property name="alpha_over">1</property>
    </transition>
    <transition id="transition13" out="00:00:00.533">
      <property name="a_track">0</property>
      <property name="b_track">1</property>
      <property name="mlt_service">mix</property>
      <property name="start">-1</property>
      <property name="accepts_blanks">1</property>
    </transition>
  </tractor>
  <producer id="producer35" in="00:00:00.000" out="03:59:59.967">
    <property name="length">04:00:00.000</property>
    <property name="eof">pause</property>
    <property name="resource">/home/xenvre/robot-code/optical-flow-6d-tracking-code/video/media/still17.png</property>
    <property name="ttl">1</property>
    <property name="aspect_ratio">1</property>
    <property name="progressive">1</property>
    <property name="seekable">1</property>
    <property name="mlt_service">qimage</property>
    <property name="creation_time">2021-05-22T13:28:21</property>
    <property name="shotcut:caption">still17.png</property>
    <property name="shotcut:hash">b457f24aaa62c403f2c57507d304817f</property>
    <property name="ignore_points">0</property>
    <property name="global_feed">1</property>
    <property name="xml">was here</property>
  </producer>
  <producer id="producer36" in="00:00:00.000" out="00:00:51.600">
    <property name="length">00:00:51.633</property>
    <property name="eof">pause</property>
    <property name="resource">/home/xenvre/robot-code/optical-flow-6d-tracking-code/video/media/009_0.mp4</property>
    <property name="audio_index">-1</property>
    <property name="video_index">0</property>
    <property name="mute_on_pause">0</property>
    <property name="mlt_service">avformat-novalidate</property>
    <property name="seekable">1</property>
    <property name="aspect_ratio">1</property>
    <property name="creation_time">2021-05-21T16:14:41</property>
    <property name="shotcut:hash">249f6ba3aec17ee3c8265b616a9ceff6</property>
    <property name="ignore_points">0</property>
    <property name="shotcut:caption">009_0.mp4</property>
    <property name="global_feed">1</property>
    <property name="xml">was here</property>
  </producer>
  <tractor id="tractor7" global_feed="1" in="00:00:00.000" out="00:00:00.300">
    <property name="shotcut:transition">lumaMix</property>
    <track producer="producer35" in="00:00:00.100" out="00:00:00.400"/>
    <track producer="producer36" in="00:00:18.533" out="00:00:18.833"/>
    <transition id="transition14" out="00:00:00.300">
      <property name="a_track">0</property>
      <property name="b_track">1</property>
      <property name="factory">loader</property>
      <property name="mlt_service">luma</property>
      <property name="alpha_over">1</property>
    </transition>
    <transition id="transition15" out="00:00:00.300">
      <property name="a_track">0</property>
      <property name="b_track">1</property>
      <property name="mlt_service">mix</property>
      <property name="start">-1</property>
      <property name="accepts_blanks">1</property>
    </transition>
  </tractor>
  <producer id="producer37" in="00:00:00.000" out="03:59:59.967">
    <property name="length">04:00:00.000</property>
    <property name="eof">pause</property>
    <property name="resource">/home/xenvre/robot-code/optical-flow-6d-tracking-code/video/media/still19.png</property>
    <property name="ttl">1</property>
    <property name="aspect_ratio">1</property>
    <property name="progressive">1</property>
    <property name="seekable">1</property>
    <property name="mlt_service">qimage</property>
    <property name="creation_time">2021-05-22T13:34:09</property>
    <property name="shotcut:caption">still19.png</property>
    <property name="shotcut:hash">c4cfbed9c6d065d02cef3e060e584008</property>
    <property name="ignore_points">0</property>
    <property name="global_feed">1</property>
    <property name="xml">was here</property>
  </producer>
  <producer id="producer38" in="00:00:00.000" out="00:00:51.600">
    <property name="length">00:00:51.633</property>
    <property name="eof">pause</property>
    <property name="resource">/home/xenvre/robot-code/optical-flow-6d-tracking-code/video/media/009_0.mp4</property>
    <property name="audio_index">-1</property>
    <property name="video_index">0</property>
    <property name="mute_on_pause">0</property>
    <property name="mlt_service">avformat-novalidate</property>
    <property name="seekable">1</property>
    <property name="aspect_ratio">1</property>
    <property name="creation_time">2021-05-21T16:14:41</property>
    <property name="shotcut:hash">249f6ba3aec17ee3c8265b616a9ceff6</property>
    <property name="ignore_points">0</property>
    <property name="shotcut:caption">009_0.mp4</property>
    <property name="global_feed">1</property>
    <property name="xml">was here</property>
    <filter id="filter5" in="00:00:41.567" out="00:00:48.000">
      <property name="start">1</property>
      <property name="level">00:00:05.467=1;00:00:06.433=0</property>
      <property name="mlt_service">brightness</property>
      <property name="shotcut:filter">fadeOutBrightness</property>
      <property name="alpha">1</property>
      <property name="shotcut:animOut">00:00:01.000</property>
    </filter>
  </producer>
  <tractor id="tractor8" global_feed="1" in="00:00:00.000" out="00:00:00.300">
    <property name="shotcut:transition">lumaMix</property>
    <track producer="producer37" in="00:00:00.100" out="00:00:00.400"/>
    <track producer="producer38" in="00:00:41.567" out="00:00:41.867"/>
    <transition id="transition16" out="00:00:00.300">
      <property name="a_track">0</property>
      <property name="b_track">1</property>
      <property name="factory">loader</property>
      <property name="mlt_service">luma</property>
      <property name="alpha_over">1</property>
    </transition>
    <transition id="transition17" out="00:00:00.300">
      <property name="a_track">0</property>
      <property name="b_track">1</property>
      <property name="mlt_service">mix</property>
      <property name="start">-1</property>
      <property name="accepts_blanks">1</property>
    </transition>
  </tractor>
  <producer id="producer39" in="00:00:00.000" out="03:59:59.967">
    <property name="length">04:00:00.000</property>
    <property name="eof">pause</property>
    <property name="resource">/home/xenvre/robot-code/optical-flow-6d-tracking-code/video/media/slide_video/Slide13.PNG</property>
    <property name="ttl">1</property>
    <property name="aspect_ratio">1</property>
    <property name="progressive">1</property>
    <property name="seekable">1</property>
    <property name="mlt_service">qimage</property>
    <property name="creation_time">2021-05-22T07:48:44</property>
    <property name="shotcut:caption">Slide13.PNG</property>
    <property name="shotcut:hash">3bb05f49c0d5632188e371e86c143d5c</property>
    <property name="ignore_points">0</property>
    <property name="global_feed">1</property>
    <property name="xml">was here</property>
  </producer>
  <producer id="producer40" in="00:00:00.000" out="00:00:51.600">
    <property name="length">00:00:51.633</property>
    <property name="eof">pause</property>
    <property name="resource">/home/xenvre/robot-code/optical-flow-6d-tracking-code/video/media/003_1.mp4</property>
    <property name="audio_index">-1</property>
    <property name="video_index">0</property>
    <property name="mute_on_pause">0</property>
    <property name="mlt_service">avformat-novalidate</property>
    <property name="seekable">1</property>
    <property name="aspect_ratio">1</property>
    <property name="creation_time">2021-05-22T11:24:55</property>
    <property name="shotcut:hash">d7ee7775a58a0dde5627d0e8ea90e39f</property>
    <property name="ignore_points">0</property>
    <property name="shotcut:caption">003_1.mp4</property>
    <property name="global_feed">1</property>
    <property name="xml">was here</property>
    <filter id="filter6" in="00:00:10.567" out="00:00:17.000">
      <property name="start">1</property>
      <property name="level">00:00:00.000=0;00:00:00.967=1</property>
      <property name="mlt_service">brightness</property>
      <property name="shotcut:filter">fadeInBrightness</property>
      <property name="alpha">1</property>
      <property name="shotcut:animIn">00:00:01.000</property>
    </filter>
  </producer>
  <producer id="producer41" in="00:00:00.000" out="03:59:59.967">
    <property name="length">04:00:00.000</property>
    <property name="eof">pause</property>
    <property name="resource">/home/xenvre/robot-code/optical-flow-6d-tracking-code/video/media/still0.png</property>
    <property name="ttl">1</property>
    <property name="aspect_ratio">1</property>
    <property name="progressive">1</property>
    <property name="seekable">1</property>
    <property name="mlt_service">qimage</property>
    <property name="creation_time">2021-05-22T11:58:20</property>
    <property name="shotcut:caption">still0.png</property>
    <property name="shotcut:hash">62c9f46f8f5ae1de6573882d658e08c4</property>
    <property name="ignore_points">0</property>
    <property name="global_feed">1</property>
    <property name="xml">was here</property>
  </producer>
  <producer id="producer42" in="00:00:00.000" out="00:00:51.600">
    <property name="length">00:00:51.633</property>
    <property name="eof">pause</property>
    <property name="resource">/home/xenvre/robot-code/optical-flow-6d-tracking-code/video/media/003_1.mp4</property>
    <property name="audio_index">-1</property>
    <property name="video_index">0</property>
    <property name="mute_on_pause">0</property>
    <property name="mlt_service">avformat-novalidate</property>
    <property name="seekable">1</property>
    <property name="aspect_ratio">1</property>
    <property name="creation_time">2021-05-22T11:24:55</property>
    <property name="shotcut:hash">d7ee7775a58a0dde5627d0e8ea90e39f</property>
    <property name="ignore_points">0</property>
    <property name="shotcut:caption">003_1.mp4</property>
    <property name="global_feed">1</property>
    <property name="xml">was here</property>
  </producer>
  <tractor id="tractor9" global_feed="1" in="00:00:00.000" out="00:00:00.333">
    <property name="shotcut:transition">lumaMix</property>
    <track producer="producer41" in="00:00:00.067" out="00:00:00.400"/>
    <track producer="producer42" in="00:00:17.033" out="00:00:17.367"/>
    <transition id="transition18" out="00:00:00.333">
      <property name="a_track">0</property>
      <property name="b_track">1</property>
      <property name="factory">loader</property>
      <property name="mlt_service">luma</property>
      <property name="alpha_over">1</property>
    </transition>
    <transition id="transition19" out="00:00:00.333">
      <property name="a_track">0</property>
      <property name="b_track">1</property>
      <property name="mlt_service">mix</property>
      <property name="start">-1</property>
      <property name="accepts_blanks">1</property>
    </transition>
  </tractor>
  <producer id="producer43" in="00:00:00.000" out="03:59:59.967">
    <property name="length">04:00:00.000</property>
    <property name="eof">pause</property>
    <property name="resource">/home/xenvre/robot-code/optical-flow-6d-tracking-code/video/media/still2.png</property>
    <property name="ttl">1</property>
    <property name="aspect_ratio">1</property>
    <property name="progressive">1</property>
    <property name="seekable">1</property>
    <property name="mlt_service">qimage</property>
    <property name="creation_time">2021-05-22T12:04:29</property>
    <property name="shotcut:caption">still2.png</property>
    <property name="shotcut:hash">6a99241a15b00070d1b00b4807ca4802</property>
    <property name="ignore_points">0</property>
    <property name="global_feed">1</property>
    <property name="xml">was here</property>
  </producer>
  <producer id="producer44" in="00:00:00.000" out="00:00:51.600">
    <property name="length">00:00:51.633</property>
    <property name="eof">pause</property>
    <property name="resource">/home/xenvre/robot-code/optical-flow-6d-tracking-code/video/media/003_1.mp4</property>
    <property name="audio_index">-1</property>
    <property name="video_index">0</property>
    <property name="mute_on_pause">0</property>
    <property name="mlt_service">avformat-novalidate</property>
    <property name="seekable">1</property>
    <property name="aspect_ratio">1</property>
    <property name="creation_time">2021-05-22T11:24:55</property>
    <property name="shotcut:hash">d7ee7775a58a0dde5627d0e8ea90e39f</property>
    <property name="ignore_points">0</property>
    <property name="shotcut:caption">003_1.mp4</property>
    <property name="global_feed">1</property>
    <property name="xml">was here</property>
  </producer>
  <tractor id="tractor10" global_feed="1" in="00:00:00.000" out="00:00:00.333">
    <property name="shotcut:transition">lumaMix</property>
    <track producer="producer43" in="00:00:00.067" out="00:00:00.400"/>
    <track producer="producer44" in="00:00:26.267" out="00:00:26.600"/>
    <transition id="transition20" out="00:00:00.333">
      <property name="a_track">0</property>
      <property name="b_track">1</property>
      <property name="factory">loader</property>
      <property name="mlt_service">luma</property>
      <property name="alpha_over">1</property>
    </transition>
    <transition id="transition21" out="00:00:00.333">
      <property name="a_track">0</property>
      <property name="b_track">1</property>
      <property name="mlt_service">mix</property>
      <property name="start">-1</property>
      <property name="accepts_blanks">1</property>
    </transition>
  </tractor>
  <producer id="producer45" in="00:00:00.000" out="03:59:59.967">
    <property name="length">04:00:00.000</property>
    <property name="eof">pause</property>
    <property name="resource">/home/xenvre/robot-code/optical-flow-6d-tracking-code/video/media/still4.png</property>
    <property name="ttl">1</property>
    <property name="aspect_ratio">1</property>
    <property name="progressive">1</property>
    <property name="seekable">1</property>
    <property name="mlt_service">qimage</property>
    <property name="creation_time">2021-05-22T12:11:25</property>
    <property name="shotcut:caption">still4.png</property>
    <property name="shotcut:hash">ce45a8b09cb2d5c39205e9bc23c664df</property>
    <property name="ignore_points">0</property>
    <property name="global_feed">1</property>
    <property name="xml">was here</property>
  </producer>
  <producer id="producer46" in="00:00:00.000" out="00:00:51.600">
    <property name="length">00:00:51.633</property>
    <property name="eof">pause</property>
    <property name="resource">/home/xenvre/robot-code/optical-flow-6d-tracking-code/video/media/003_1.mp4</property>
    <property name="audio_index">-1</property>
    <property name="video_index">0</property>
    <property name="mute_on_pause">0</property>
    <property name="mlt_service">avformat-novalidate</property>
    <property name="seekable">1</property>
    <property name="aspect_ratio">1</property>
    <property name="creation_time">2021-05-22T11:24:55</property>
    <property name="shotcut:hash">d7ee7775a58a0dde5627d0e8ea90e39f</property>
    <property name="ignore_points">0</property>
    <property name="shotcut:caption">003_1.mp4</property>
    <property name="global_feed">1</property>
    <property name="xml">was here</property>
  </producer>
  <tractor id="tractor11" global_feed="1" in="00:00:00.000" out="00:00:00.333">
    <property name="shotcut:transition">lumaMix</property>
    <track producer="producer45" in="00:00:00.067" out="00:00:00.400"/>
    <track producer="producer46" in="00:00:41.600" out="00:00:41.933"/>
    <transition id="transition22" out="00:00:00.333">
      <property name="a_track">0</property>
      <property name="b_track">1</property>
      <property name="factory">loader</property>
      <property name="mlt_service">luma</property>
      <property name="alpha_over">1</property>
    </transition>
    <transition id="transition23" out="00:00:00.333">
      <property name="a_track">0</property>
      <property name="b_track">1</property>
      <property name="mlt_service">mix</property>
      <property name="start">-1</property>
      <property name="accepts_blanks">1</property>
    </transition>
  </tractor>
  <producer id="producer47" in="00:00:00.000" out="03:59:59.967">
    <property name="length">04:00:00.000</property>
    <property name="eof">pause</property>
    <property name="resource">/home/xenvre/robot-code/optical-flow-6d-tracking-code/video/media/still6.png</property>
    <property name="ttl">1</property>
    <property name="aspect_ratio">1</property>
    <property name="progressive">1</property>
    <property name="seekable">1</property>
    <property name="mlt_service">qimage</property>
    <property name="creation_time">2021-05-22T12:14:39</property>
    <property name="shotcut:caption">still6.png</property>
    <property name="shotcut:hash">d00a7d1742b0377aa29c2c67cbae4976</property>
    <property name="ignore_points">0</property>
    <property name="global_feed">1</property>
    <property name="xml">was here</property>
    <filter id="filter7" out="00:00:01.700">
      <property name="start">1</property>
      <property name="level">00:00:00.733=1;00:00:01.700=0</property>
      <property name="mlt_service">brightness</property>
      <property name="shotcut:filter">fadeOutBrightness</property>
      <property name="alpha">1</property>
      <property name="shotcut:animOut">00:00:01.000</property>
    </filter>
  </producer>
  <producer id="producer48" in="00:00:00.000" out="00:00:51.600">
    <property name="length">00:00:51.633</property>
    <property name="eof">pause</property>
    <property name="resource">/home/xenvre/robot-code/optical-flow-6d-tracking-code/video/media/006_1.mp4</property>
    <property name="audio_index">-1</property>
    <property name="video_index">0</property>
    <property name="mute_on_pause">0</property>
    <property name="mlt_service">avformat-novalidate</property>
    <property name="seekable">1</property>
    <property name="aspect_ratio">1</property>
    <property name="creation_time">2021-05-22T11:29:54</property>
    <property name="shotcut:hash">b43a4888cc1de9921cea528abafa1b99</property>
    <property name="global_feed">1</property>
    <property name="xml">was here</property>
    <property name="ignore_points">0</property>
    <property name="shotcut:caption">006_1.mp4</property>
    <filter id="filter8" in="00:00:17.633" out="00:00:25.400">
      <property name="start">1</property>
      <property name="level">00:00:00.000=0;00:00:00.967=1</property>
      <property name="mlt_service">brightness</property>
      <property name="shotcut:filter">fadeInBrightness</property>
      <property name="alpha">1</property>
      <property name="shotcut:animIn">00:00:01.000</property>
    </filter>
  </producer>
  <tractor id="tractor12" global_feed="1" in="00:00:00.000" out="00:00:00.400">
    <property name="shotcut:transition">lumaMix</property>
    <track producer="producer47" in="00:00:01.300" out="00:00:01.700"/>
    <track producer="producer48" in="00:00:17.633" out="00:00:18.033"/>
    <transition id="transition24" out="00:00:00.400">
      <property name="a_track">0</property>
      <property name="b_track">1</property>
      <property name="factory">loader</property>
      <property name="mlt_service">luma</property>
      <property name="alpha_over">1</property>
    </transition>
    <transition id="transition25" out="00:00:00.400">
      <property name="a_track">0</property>
      <property name="b_track">1</property>
      <property name="mlt_service">mix</property>
      <property name="start">-1</property>
      <property name="accepts_blanks">1</property>
    </transition>
  </tractor>
  <producer id="producer49" in="00:00:00.000" out="03:59:59.967">
    <property name="length">04:00:00.000</property>
    <property name="eof">pause</property>
    <property name="resource">/home/xenvre/robot-code/optical-flow-6d-tracking-code/video/media/still8.png</property>
    <property name="ttl">1</property>
    <property name="aspect_ratio">1</property>
    <property name="progressive">1</property>
    <property name="seekable">1</property>
    <property name="mlt_service">qimage</property>
    <property name="creation_time">2021-05-22T12:27:46</property>
    <property name="shotcut:caption">still8.png</property>
    <property name="shotcut:hash">f5bfe90243d26c79dcc32a437eec79f0</property>
    <property name="ignore_points">0</property>
    <property name="global_feed">1</property>
    <property name="xml">was here</property>
  </producer>
  <producer id="producer50" in="00:00:00.000" out="00:00:51.600">
    <property name="length">00:00:51.633</property>
    <property name="eof">pause</property>
    <property name="resource">/home/xenvre/robot-code/optical-flow-6d-tracking-code/video/media/006_1.mp4</property>
    <property name="audio_index">-1</property>
    <property name="video_index">0</property>
    <property name="mute_on_pause">0</property>
    <property name="mlt_service">avformat-novalidate</property>
    <property name="seekable">1</property>
    <property name="aspect_ratio">1</property>
    <property name="creation_time">2021-05-22T11:29:54</property>
    <property name="shotcut:hash">b43a4888cc1de9921cea528abafa1b99</property>
    <property name="global_feed">1</property>
    <property name="xml">was here</property>
    <property name="ignore_points">0</property>
    <property name="shotcut:caption">006_1.mp4</property>
  </producer>
  <tractor id="tractor13" global_feed="1" in="00:00:00.000" out="00:00:00.333">
    <property name="shotcut:transition">lumaMix</property>
    <track producer="producer49" in="00:00:00.067" out="00:00:00.400"/>
    <track producer="producer50" in="00:00:31.933" out="00:00:32.267"/>
    <transition id="transition26" out="00:00:00.333">
      <property name="a_track">0</property>
      <property name="b_track">1</property>
      <property name="factory">loader</property>
      <property name="mlt_service">luma</property>
      <property name="alpha_over">1</property>
    </transition>
    <transition id="transition27" out="00:00:00.333">
      <property name="a_track">0</property>
      <property name="b_track">1</property>
      <property name="mlt_service">mix</property>
      <property name="start">-1</property>
      <property name="accepts_blanks">1</property>
    </transition>
  </tractor>
  <producer id="producer51" in="00:00:00.000" out="03:59:59.967">
    <property name="length">04:00:00.000</property>
    <property name="eof">pause</property>
    <property name="resource">/home/xenvre/robot-code/optical-flow-6d-tracking-code/video/media/still10.png</property>
    <property name="ttl">1</property>
    <property name="aspect_ratio">1</property>
    <property name="progressive">1</property>
    <property name="seekable">1</property>
    <property name="mlt_service">qimage</property>
    <property name="creation_time">2021-05-22T12:32:21</property>
    <property name="shotcut:caption">still10.png</property>
    <property name="shotcut:hash">92abfe09e8ebbaaef3e306e9425fc990</property>
    <property name="ignore_points">0</property>
    <property name="global_feed">1</property>
    <property name="xml">was here</property>
  </producer>
  <producer id="producer52" in="00:00:00.000" out="00:00:51.600">
    <property name="length">00:00:51.633</property>
    <property name="eof">pause</property>
    <property name="resource">/home/xenvre/robot-code/optical-flow-6d-tracking-code/video/media/006_1.mp4</property>
    <property name="audio_index">-1</property>
    <property name="video_index">0</property>
    <property name="mute_on_pause">0</property>
    <property name="mlt_service">avformat-novalidate</property>
    <property name="seekable">1</property>
    <property name="aspect_ratio">1</property>
    <property name="creation_time">2021-05-22T11:29:54</property>
    <property name="shotcut:hash">b43a4888cc1de9921cea528abafa1b99</property>
    <property name="global_feed">1</property>
    <property name="xml">was here</property>
    <property name="ignore_points">0</property>
    <property name="shotcut:caption">006_1.mp4</property>
  </producer>
  <tractor id="tractor14" global_feed="1" in="00:00:00.000" out="00:00:00.333">
    <property name="shotcut:transition">lumaMix</property>
    <track producer="producer51" in="00:00:00.067" out="00:00:00.400"/>
    <track producer="producer52" in="00:00:42.200" out="00:00:42.533"/>
    <transition id="transition28" out="00:00:00.333">
      <property name="a_track">0</property>
      <property name="b_track">1</property>
      <property name="factory">loader</property>
      <property name="mlt_service">luma</property>
      <property name="alpha_over">1</property>
    </transition>
    <transition id="transition29" out="00:00:00.333">
      <property name="a_track">0</property>
      <property name="b_track">1</property>
      <property name="mlt_service">mix</property>
      <property name="start">-1</property>
      <property name="accepts_blanks">1</property>
    </transition>
  </tractor>
  <producer id="producer53" in="00:00:00.000" out="03:59:59.967">
    <property name="length">04:00:00.000</property>
    <property name="eof">pause</property>
    <property name="resource">/home/xenvre/robot-code/optical-flow-6d-tracking-code/video/media/still12.png</property>
    <property name="ttl">1</property>
    <property name="aspect_ratio">1</property>
    <property name="progressive">1</property>
    <property name="seekable">1</property>
    <property name="mlt_service">qimage</property>
    <property name="creation_time">2021-05-22T12:49:20</property>
    <property name="shotcut:caption">still12.png</property>
    <property name="shotcut:hash">a836c09dcefca23a2e279ba49aeef9e9</property>
    <property name="ignore_points">0</property>
    <property name="global_feed">1</property>
    <property name="xml">was here</property>
  </producer>
  <producer id="producer54" in="00:00:00.000" out="00:03:26.500">
    <property name="length">00:03:26.533</property>
    <property name="eof">pause</property>
    <property name="resource">0.25:/home/xenvre/robot-code/optical-flow-6d-tracking-code/video/media/006_1.mp4</property>
    <property name="aspect_ratio">1</property>
    <property name="seekable">1</property>
    <property name="audio_index">-1</property>
    <property name="video_index">0</property>
    <property name="mute_on_pause">1</property>
    <property name="warp_speed">0.25</property>
    <property name="warp_resource">/home/xenvre/robot-code/optical-flow-6d-tracking-code/video/media/006_1.mp4</property>
    <property name="mlt_service">timewarp</property>
    <property name="shotcut:producer">avformat</property>
    <property name="video_delay">0</property>
    <property name="shotcut:hash">b43a4888cc1de9921cea528abafa1b99</property>
    <property name="shotcut:caption">006_1.mp4 (0.25x)</property>
    <property name="global_feed">1</property>
    <property name="xml">was here</property>
  </producer>
  <producer id="producer55" in="00:00:00.000" out="03:59:59.967">
    <property name="length">04:00:00.000</property>
    <property name="eof">pause</property>
    <property name="resource">/home/xenvre/robot-code/optical-flow-6d-tracking-code/video/media/still14.png</property>
    <property name="ttl">1</property>
    <property name="aspect_ratio">1</property>
    <property name="progressive">1</property>
    <property name="seekable">1</property>
    <property name="mlt_service">qimage</property>
    <property name="creation_time">2021-05-22T12:53:19</property>
    <property name="shotcut:caption">still14.png</property>
    <property name="shotcut:hash">278f683a44ce7555a00fa52228678d6e</property>
    <property name="ignore_points">0</property>
    <property name="global_feed">1</property>
    <property name="xml">was here</property>
    <filter id="filter9" out="00:00:02.267">
      <property name="start">1</property>
      <property name="level">00:00:01.300=1;00:00:02.267=0</property>
      <property name="mlt_service">brightness</property>
      <property name="shotcut:filter">fadeOutBrightness</property>
      <property name="alpha">1</property>
      <property name="shotcut:animOut">00:00:01.000</property>
    </filter>
  </producer>
  <producer id="producer56" in="00:00:00.000" out="00:00:51.600">
    <property name="length">00:00:51.633</property>
    <property name="eof">pause</property>
    <property name="resource">/home/xenvre/robot-code/optical-flow-6d-tracking-code/video/media/009_1.mp4</property>
    <property name="audio_index">-1</property>
    <property name="video_index">0</property>
    <property name="mute_on_pause">0</property>
    <property name="mlt_service">avformat-novalidate</property>
    <property name="seekable">1</property>
    <property name="aspect_ratio">1</property>
    <property name="creation_time">2021-05-22T11:32:14</property>
    <property name="shotcut:hash">6ae5f2be5cc7aa3c4df69c684cbb2c88</property>
    <property name="global_feed">1</property>
    <property name="xml">was here</property>
    <property name="ignore_points">0</property>
    <property name="shotcut:caption">009_1.mp4</property>
    <filter id="filter10" in="00:00:02.033" out="00:00:11.500">
      <property name="start">1</property>
      <property name="level">00:00:00.000=0;00:00:00.967=1</property>
      <property name="mlt_service">brightness</property>
      <property name="shotcut:filter">fadeInBrightness</property>
      <property name="alpha">1</property>
      <property name="shotcut:animIn">00:00:01.000</property>
    </filter>
  </producer>
  <tractor id="tractor15" global_feed="1" in="00:00:00.000" out="00:00:00.533">
    <property name="shotcut:transition">lumaMix</property>
    <track producer="producer55" in="00:00:01.733" out="00:00:02.267"/>
    <track producer="producer56" in="00:00:02.033" out="00:00:02.567"/>
    <transition id="transition30" out="00:00:00.533">
      <property name="a_track">0</property>
      <property name="b_track">1</property>
      <property name="factory">loader</property>
      <property name="mlt_service">luma</property>
      <property name="alpha_over">1</property>
    </transition>
    <transition id="transition31" out="00:00:00.533">
      <property name="a_track">0</property>
      <property name="b_track">1</property>
      <property name="mlt_service">mix</property>
      <property name="start">-1</property>
      <property name="accepts_blanks">1</property>
    </transition>
  </tractor>
  <producer id="producer57" in="00:00:00.000" out="03:59:59.967">
    <property name="length">04:00:00.000</property>
    <property name="eof">pause</property>
    <property name="resource">/home/xenvre/robot-code/optical-flow-6d-tracking-code/video/media/still16.png</property>
    <property name="ttl">1</property>
    <property name="aspect_ratio">1</property>
    <property name="progressive">1</property>
    <property name="seekable">1</property>
    <property name="mlt_service">qimage</property>
    <property name="creation_time">2021-05-22T13:27:57</property>
    <property name="shotcut:caption">still16.png</property>
    <property name="shotcut:hash">fd2e49811c560cc15a9cbe51af45d9dc</property>
    <property name="ignore_points">0</property>
    <property name="global_feed">1</property>
    <property name="xml">was here</property>
  </producer>
  <producer id="producer58" in="00:00:00.000" out="00:00:51.600">
    <property name="length">00:00:51.633</property>
    <property name="eof">pause</property>
    <property name="resource">/home/xenvre/robot-code/optical-flow-6d-tracking-code/video/media/009_1.mp4</property>
    <property name="audio_index">-1</property>
    <property name="video_index">0</property>
    <property name="mute_on_pause">0</property>
    <property name="mlt_service">avformat-novalidate</property>
    <property name="seekable">1</property>
    <property name="aspect_ratio">1</property>
    <property name="creation_time">2021-05-22T11:32:14</property>
    <property name="shotcut:hash">6ae5f2be5cc7aa3c4df69c684cbb2c88</property>
    <property name="global_feed">1</property>
    <property name="xml">was here</property>
    <property name="ignore_points">0</property>
    <property name="shotcut:caption">009_1.mp4</property>
  </producer>
  <tractor id="tractor16" global_feed="1" in="00:00:00.000" out="00:00:00.300">
    <property name="shotcut:transition">lumaMix</property>
    <track producer="producer57" in="00:00:00.100" out="00:00:00.400"/>
    <track producer="producer58" in="00:00:18.533" out="00:00:18.833"/>
    <transition id="transition32" out="00:00:00.300">
      <property name="a_track">0</property>
      <property name="b_track">1</property>
      <property name="factory">loader</property>
      <property name="mlt_service">luma</property>
      <property name="alpha_over">1</property>
    </transition>
    <transition id="transition33" out="00:00:00.300">
      <property name="a_track">0</property>
      <property name="b_track">1</property>
      <property name="mlt_service">mix</property>
      <property name="start">-1</property>
      <property name="accepts_blanks">1</property>
    </transition>
  </tractor>
  <producer id="producer59" in="00:00:00.000" out="03:59:59.967">
    <property name="length">04:00:00.000</property>
    <property name="eof">pause</property>
    <property name="resource">/home/xenvre/robot-code/optical-flow-6d-tracking-code/video/media/still18.png</property>
    <property name="ttl">1</property>
    <property name="aspect_ratio">1</property>
    <property name="progressive">1</property>
    <property name="seekable">1</property>
    <property name="mlt_service">qimage</property>
    <property name="creation_time">2021-05-22T13:34:02</property>
    <property name="shotcut:caption">still18.png</property>
    <property name="shotcut:hash">0d35f4b0ee427733c66580647d3f14b1</property>
    <property name="ignore_points">0</property>
    <property name="global_feed">1</property>
    <property name="xml">was here</property>
  </producer>
  <producer id="producer60" in="00:00:00.000" out="00:00:51.600">
    <property name="length">00:00:51.633</property>
    <property name="eof">pause</property>
    <property name="resource">/home/xenvre/robot-code/optical-flow-6d-tracking-code/video/media/009_1.mp4</property>
    <property name="audio_index">-1</property>
    <property name="video_index">0</property>
    <property name="mute_on_pause">0</property>
    <property name="mlt_service">avformat-novalidate</property>
    <property name="seekable">1</property>
    <property name="aspect_ratio">1</property>
    <property name="creation_time">2021-05-22T11:32:14</property>
    <property name="shotcut:hash">6ae5f2be5cc7aa3c4df69c684cbb2c88</property>
    <property name="global_feed">1</property>
    <property name="xml">was here</property>
    <property name="ignore_points">0</property>
    <property name="shotcut:caption">009_1.mp4</property>
    <filter id="filter11" in="00:00:41.567" out="00:00:48.000">
      <property name="start">1</property>
      <property name="level">00:00:05.467=1;00:00:06.433=0</property>
      <property name="mlt_service">brightness</property>
      <property name="shotcut:filter">fadeOutBrightness</property>
      <property name="alpha">1</property>
      <property name="shotcut:animOut">00:00:01.000</property>
    </filter>
  </producer>
  <tractor id="tractor17" global_feed="1" in="00:00:00.000" out="00:00:00.300">
    <property name="shotcut:transition">lumaMix</property>
    <track producer="producer59" in="00:00:00.100" out="00:00:00.400"/>
    <track producer="producer60" in="00:00:41.567" out="00:00:41.867"/>
    <transition id="transition34" out="00:00:00.300">
      <property name="a_track">0</property>
      <property name="b_track">1</property>
      <property name="factory">loader</property>
      <property name="mlt_service">luma</property>
      <property name="alpha_over">1</property>
    </transition>
    <transition id="transition35" out="00:00:00.300">
      <property name="a_track">0</property>
      <property name="b_track">1</property>
      <property name="mlt_service">mix</property>
      <property name="start">-1</property>
      <property name="accepts_blanks">1</property>
    </transition>
  </tractor>
  <producer id="producer61" in="00:00:00.000" out="03:59:59.967">
    <property name="length">04:00:00.000</property>
    <property name="eof">pause</property>
    <property name="resource">/home/xenvre/robot-code/optical-flow-6d-tracking-code/video/media/slide_video/Slide14.PNG</property>
    <property name="ttl">1</property>
    <property name="aspect_ratio">1</property>
    <property name="progressive">1</property>
    <property name="seekable">1</property>
    <property name="mlt_service">qimage</property>
    <property name="creation_time">2021-05-22T07:48:44</property>
    <property name="shotcut:caption">Slide14.PNG</property>
    <property name="shotcut:hash">5c240d43f783e60fe2a7a23518664a81</property>
    <property name="ignore_points">0</property>
    <property name="global_feed">1</property>
    <property name="xml">was here</property>
  </producer>
  <producer id="producer62" in="00:00:00.000" out="00:00:51.600">
    <property name="length">00:00:51.633</property>
    <property name="eof">pause</property>
    <property name="resource">/home/xenvre/robot-code/optical-flow-6d-tracking-code/video/media/003_real_0.mp4</property>
    <property name="audio_index">-1</property>
    <property name="video_index">0</property>
    <property name="mute_on_pause">0</property>
    <property name="mlt_service">avformat-novalidate</property>
    <property name="seekable">1</property>
    <property name="aspect_ratio">1</property>
    <property name="creation_time">2021-05-21T16:34:26</property>
    <property name="shotcut:hash">6d6631e7608bcd8d99048331606d159d</property>
    <property name="ignore_points">0</property>
    <property name="shotcut:caption">003_real_0.mp4</property>
    <property name="global_feed">1</property>
    <property name="xml">was here</property>
    <filter id="filter12" in="00:00:01.800" out="00:00:08.833">
      <property name="start">1</property>
      <property name="level">00:00:00.000=0;00:00:00.967=1</property>
      <property name="mlt_service">brightness</property>
      <property name="shotcut:filter">fadeInBrightness</property>
      <property name="alpha">1</property>
      <property name="shotcut:animIn">00:00:01.000</property>
    </filter>
  </producer>
  <producer id="producer63" in="00:00:00.000" out="03:59:59.967">
    <property name="length">04:00:00.000</property>
    <property name="eof">pause</property>
    <property name="resource">/home/xenvre/robot-code/optical-flow-6d-tracking-code/video/media/still22.png</property>
    <property name="ttl">1</property>
    <property name="aspect_ratio">1</property>
    <property name="progressive">1</property>
    <property name="seekable">1</property>
    <property name="mlt_service">qimage</property>
    <property name="creation_time">2021-05-22T13:53:20</property>
    <property name="shotcut:caption">still22.png</property>
    <property name="shotcut:hash">068a8ae3feab37ea80251405099f5a39</property>
    <property name="ignore_points">0</property>
    <property name="global_feed">1</property>
    <property name="xml">was here</property>
  </producer>
  <producer id="producer64" in="00:00:00.000" out="00:00:51.600">
    <property name="length">00:00:51.633</property>
    <property name="eof">pause</property>
    <property name="resource">/home/xenvre/robot-code/optical-flow-6d-tracking-code/video/media/003_real_0.mp4</property>
    <property name="audio_index">-1</property>
    <property name="video_index">0</property>
    <property name="mute_on_pause">0</property>
    <property name="mlt_service">avformat-novalidate</property>
    <property name="seekable">1</property>
    <property name="aspect_ratio">1</property>
    <property name="creation_time">2021-05-21T16:34:26</property>
    <property name="shotcut:hash">6d6631e7608bcd8d99048331606d159d</property>
    <property name="ignore_points">0</property>
    <property name="shotcut:caption">003_real_0.mp4</property>
    <property name="global_feed">1</property>
    <property name="xml">was here</property>
  </producer>
  <tractor id="tractor18" global_feed="1" in="00:00:00.000" out="00:00:00.367">
    <property name="shotcut:transition">lumaMix</property>
    <track producer="producer63" in="00:00:00.033" out="00:00:00.400"/>
    <track producer="producer64" in="00:00:12.200" out="00:00:12.567"/>
    <transition id="transition36" out="00:00:00.367">
      <property name="a_track">0</property>
      <property name="b_track">1</property>
      <property name="factory">loader</property>
      <property name="mlt_service">luma</property>
      <property name="alpha_over">1</property>
    </transition>
    <transition id="transition37" out="00:00:00.367">
      <property name="a_track">0</property>
      <property name="b_track">1</property>
      <property name="mlt_service">mix</property>
      <property name="start">-1</property>
      <property name="accepts_blanks">1</property>
    </transition>
  </tractor>
  <producer id="producer65" in="00:00:00.000" out="03:59:59.967">
    <property name="length">04:00:00.000</property>
    <property name="eof">pause</property>
    <property name="resource">/home/xenvre/robot-code/optical-flow-6d-tracking-code/video/media/still24.png</property>
    <property name="ttl">1</property>
    <property name="aspect_ratio">1</property>
    <property name="progressive">1</property>
    <property name="seekable">1</property>
    <property name="mlt_service">qimage</property>
    <property name="creation_time">2021-05-22T13:57:20</property>
    <property name="shotcut:caption">still24.png</property>
    <property name="shotcut:hash">428bc7b9480d5db7492664837bf3609b</property>
    <property name="ignore_points">0</property>
    <property name="global_feed">1</property>
    <property name="xml">was here</property>
  </producer>
  <producer id="producer66" in="00:00:00.000" out="00:00:51.600">
    <property name="length">00:00:51.633</property>
    <property name="eof">pause</property>
    <property name="resource">/home/xenvre/robot-code/optical-flow-6d-tracking-code/video/media/003_real_0.mp4</property>
    <property name="audio_index">-1</property>
    <property name="video_index">0</property>
    <property name="mute_on_pause">0</property>
    <property name="mlt_service">avformat-novalidate</property>
    <property name="seekable">1</property>
    <property name="aspect_ratio">1</property>
    <property name="creation_time">2021-05-21T16:34:26</property>
    <property name="shotcut:hash">6d6631e7608bcd8d99048331606d159d</property>
    <property name="ignore_points">0</property>
    <property name="shotcut:caption">003_real_0.mp4</property>
    <property name="global_feed">1</property>
    <property name="xml">was here</property>
  </producer>
  <tractor id="tractor19" global_feed="1" in="00:00:00.000" out="00:00:00.267">
    <property name="shotcut:transition">lumaMix</property>
    <track producer="producer65" in="00:00:00.133" out="00:00:00.400"/>
    <track producer="producer66" in="00:00:42.233" out="00:00:42.500"/>
    <transition id="transition38" out="00:00:00.267">
      <property name="a_track">0</property>
      <property name="b_track">1</property>
      <property name="factory">loader</property>
      <property name="mlt_service">luma</property>
      <property name="alpha_over">1</property>
    </transition>
    <transition id="transition39" out="00:00:00.267">
      <property name="a_track">0</property>
      <property name="b_track">1</property>
      <property name="mlt_service">mix</property>
      <property name="start">-1</property>
      <property name="accepts_blanks">1</property>
    </transition>
  </tractor>
  <producer id="producer67" in="00:00:00.000" out="03:59:59.967">
    <property name="length">04:00:00.000</property>
    <property name="eof">pause</property>
    <property name="resource">/home/xenvre/robot-code/optical-flow-6d-tracking-code/video/media/still26.png</property>
    <property name="ttl">1</property>
    <property name="aspect_ratio">1</property>
    <property name="progressive">1</property>
    <property name="seekable">1</property>
    <property name="mlt_service">qimage</property>
    <property name="creation_time">2021-05-22T14:04:04</property>
    <property name="shotcut:caption">still26.png</property>
    <property name="shotcut:hash">1d19b79d953b187840bda09f19e664b3</property>
    <property name="ignore_points">0</property>
    <property name="global_feed">1</property>
    <property name="xml">was here</property>
    <filter id="filter13" out="00:00:01.733">
      <property name="start">1</property>
      <property name="level">00:00:00.767=1;00:00:01.733=0</property>
      <property name="mlt_service">brightness</property>
      <property name="shotcut:filter">fadeOutBrightness</property>
      <property name="alpha">1</property>
      <property name="shotcut:animOut">00:00:01.000</property>
    </filter>
  </producer>
  <producer id="producer68" in="00:00:00.000" out="00:00:26.100">
    <property name="length">00:00:26.133</property>
    <property name="eof">pause</property>
    <property name="resource">/home/xenvre/robot-code/optical-flow-6d-tracking-code/video/media/006_real_0.mp4</property>
    <property name="audio_index">-1</property>
    <property name="video_index">0</property>
    <property name="mute_on_pause">0</property>
    <property name="mlt_service">avformat-novalidate</property>
    <property name="seekable">1</property>
    <property name="aspect_ratio">1</property>
    <property name="creation_time">2021-05-21T16:39:27</property>
    <property name="shotcut:hash">c789e4b2f289a74f93f3bce5690167b6</property>
    <property name="ignore_points">0</property>
    <property name="shotcut:caption">006_real_0.mp4</property>
    <property name="global_feed">1</property>
    <property name="xml">was here</property>
    <filter id="filter14" out="00:00:14.767">
      <property name="start">1</property>
      <property name="level">00:00:00.000=0;00:00:00.967=1</property>
      <property name="mlt_service">brightness</property>
      <property name="shotcut:filter">fadeInBrightness</property>
      <property name="alpha">1</property>
      <property name="shotcut:animIn">00:00:01.000</property>
    </filter>
    <filter id="filter15" out="00:00:14.767">
      <property name="start">1</property>
      <property name="level">00:00:13.800=1;00:00:14.767=0</property>
      <property name="mlt_service">brightness</property>
      <property name="shotcut:filter">fadeOutBrightness</property>
      <property name="alpha">1</property>
      <property name="shotcut:animOut">00:00:01.000</property>
    </filter>
  </producer>
  <tractor id="tractor20" global_feed="1" in="00:00:00.000" out="00:00:00.633">
    <property name="shotcut:transition">lumaMix</property>
    <track producer="producer67" in="00:00:01.100" out="00:00:01.733"/>
    <track producer="producer68" in="00:00:00.000" out="00:00:00.633"/>
    <transition id="transition40" out="00:00:00.633">
      <property name="a_track">0</property>
      <property name="b_track">1</property>
      <property name="factory">loader</property>
      <property name="mlt_service">luma</property>
      <property name="alpha_over">1</property>
    </transition>
    <transition id="transition41" out="00:00:00.633">
      <property name="a_track">0</property>
      <property name="b_track">1</property>
      <property name="mlt_service">mix</property>
      <property name="start">-1</property>
      <property name="accepts_blanks">1</property>
    </transition>
  </tractor>
  <producer id="producer69" in="00:00:00.000" out="03:59:59.967">
    <property name="length">04:00:00.000</property>
    <property name="eof">pause</property>
    <property name="resource">/home/xenvre/robot-code/optical-flow-6d-tracking-code/video/media/slide_video/Slide15.PNG</property>
    <property name="ttl">1</property>
    <property name="aspect_ratio">1</property>
    <property name="progressive">1</property>
    <property name="seekable">1</property>
    <property name="mlt_service">qimage</property>
    <property name="creation_time">2021-05-22T07:48:44</property>
    <property name="shotcut:caption">Slide15.PNG</property>
    <property name="shotcut:hash">067cd1e9e3cd092c8c70f161fdb9caa3</property>
    <property name="ignore_points">0</property>
    <property name="global_feed">1</property>
    <property name="xml">was here</property>
  </producer>
  <producer id="producer70" in="00:00:00.000" out="00:00:51.600">
    <property name="length">00:00:51.633</property>
    <property name="eof">pause</property>
    <property name="resource">/home/xenvre/robot-code/optical-flow-6d-tracking-code/video/media/003_real_1.mp4</property>
    <property name="audio_index">-1</property>
    <property name="video_index">0</property>
    <property name="mute_on_pause">0</property>
    <property name="mlt_service">avformat-novalidate</property>
    <property name="seekable">1</property>
    <property name="aspect_ratio">1</property>
    <property name="creation_time">2021-05-22T11:34:41</property>
    <property name="shotcut:hash">c006d3d7fe5669134a265ad455a9a27a</property>
    <property name="ignore_points">0</property>
    <property name="shotcut:caption">003_real_1.mp4</property>
    <property name="global_feed">1</property>
    <property name="xml">was here</property>
    <filter id="filter16" out="00:00:08.833">
      <property name="start">1</property>
      <property name="level">00:00:00.000=0;00:00:00.967=1</property>
      <property name="mlt_service">brightness</property>
      <property name="shotcut:filter">fadeInBrightness</property>
      <property name="alpha">1</property>
      <property name="shotcut:animIn">00:00:01.000</property>
    </filter>
  </producer>
  <producer id="producer71" in="00:00:00.000" out="00:00:51.600">
    <property name="length">00:00:51.633</property>
    <property name="eof">pause</property>
    <property name="resource">/home/xenvre/robot-code/optical-flow-6d-tracking-code/video/media/003_real_1.mp4</property>
    <property name="audio_index">-1</property>
    <property name="video_index">0</property>
    <property name="mute_on_pause">0</property>
    <property name="mlt_service">avformat-novalidate</property>
    <property name="seekable">1</property>
    <property name="aspect_ratio">1</property>
    <property name="creation_time">2021-05-22T11:34:41</property>
    <property name="shotcut:hash">c006d3d7fe5669134a265ad455a9a27a</property>
    <property name="ignore_points">0</property>
    <property name="shotcut:caption">003_real_1.mp4</property>
    <property name="global_feed">1</property>
    <property name="xml">was here</property>
  </producer>
  <tractor id="tractor21" global_feed="1" in="00:00:00.000" out="00:00:00.367">
    <property name="shotcut:transition">lumaMix</property>
    <track producer="producer70" in="00:00:00.033" out="00:00:00.400"/>
    <track producer="producer71" in="00:00:12.200" out="00:00:12.567"/>
    <transition id="transition42" out="00:00:00.367">
      <property name="a_track">0</property>
      <property name="b_track">1</property>
      <property name="factory">loader</property>
      <property name="mlt_service">luma</property>
      <property name="alpha_over">1</property>
    </transition>
    <transition id="transition43" out="00:00:00.367">
      <property name="a_track">0</property>
      <property name="b_track">1</property>
      <property name="mlt_service">mix</property>
      <property name="start">-1</property>
      <property name="accepts_blanks">1</property>
    </transition>
  </tractor>
  <producer id="producer72" in="00:00:00.000" out="03:59:59.967">
    <property name="length">04:00:00.000</property>
    <property name="eof">pause</property>
    <property name="resource">/home/xenvre/robot-code/optical-flow-6d-tracking-code/video/media/still23.png</property>
    <property name="ttl">1</property>
    <property name="aspect_ratio">1</property>
    <property name="progressive">1</property>
    <property name="seekable">1</property>
    <property name="mlt_service">qimage</property>
    <property name="creation_time">2021-05-22T13:57:10</property>
    <property name="shotcut:caption">still23.png</property>
    <property name="shotcut:hash">6ea5b0effda6dc54f14ff4612967c368</property>
    <property name="ignore_points">0</property>
    <property name="global_feed">1</property>
    <property name="xml">was here</property>
  </producer>
  <producer id="producer73" in="00:00:00.000" out="00:00:51.600">
    <property name="length">00:00:51.633</property>
    <property name="eof">pause</property>
    <property name="resource">/home/xenvre/robot-code/optical-flow-6d-tracking-code/video/media/003_real_1.mp4</property>
    <property name="audio_index">-1</property>
    <property name="video_index">0</property>
    <property name="mute_on_pause">0</property>
    <property name="mlt_service">avformat-novalidate</property>
    <property name="seekable">1</property>
    <property name="aspect_ratio">1</property>
    <property name="creation_time">2021-05-22T11:34:41</property>
    <property name="shotcut:hash">c006d3d7fe5669134a265ad455a9a27a</property>
    <property name="ignore_points">0</property>
    <property name="shotcut:caption">003_real_1.mp4</property>
    <property name="global_feed">1</property>
    <property name="xml">was here</property>
  </producer>
  <tractor id="tractor22" global_feed="1" in="00:00:00.000" out="00:00:00.267">
    <property name="shotcut:transition">lumaMix</property>
    <track producer="producer72" in="00:00:00.133" out="00:00:00.400"/>
    <track producer="producer73" in="00:00:42.233" out="00:00:42.500"/>
    <transition id="transition44" out="00:00:00.267">
      <property name="a_track">0</property>
      <property name="b_track">1</property>
      <property name="factory">loader</property>
      <property name="mlt_service">luma</property>
      <property name="alpha_over">1</property>
    </transition>
    <transition id="transition45" out="00:00:00.267">
      <property name="a_track">0</property>
      <property name="b_track">1</property>
      <property name="mlt_service">mix</property>
      <property name="start">-1</property>
      <property name="accepts_blanks">1</property>
    </transition>
  </tractor>
  <producer id="producer74" in="00:00:00.000" out="03:59:59.967">
    <property name="length">04:00:00.000</property>
    <property name="eof">pause</property>
    <property name="resource">/home/xenvre/robot-code/optical-flow-6d-tracking-code/video/media/still25.png</property>
    <property name="ttl">1</property>
    <property name="aspect_ratio">1</property>
    <property name="progressive">1</property>
    <property name="seekable">1</property>
    <property name="mlt_service">qimage</property>
    <property name="creation_time">2021-05-22T14:03:55</property>
    <property name="shotcut:caption">still25.png</property>
    <property name="shotcut:hash">c935f2ca944fbe8263bc1a14aa147456</property>
    <property name="ignore_points">0</property>
    <property name="global_feed">1</property>
    <property name="xml">was here</property>
    <filter id="filter17" out="00:00:01.733">
      <property name="start">1</property>
      <property name="level">00:00:00.767=1;00:00:01.733=0</property>
      <property name="mlt_service">brightness</property>
      <property name="shotcut:filter">fadeOutBrightness</property>
      <property name="alpha">1</property>
      <property name="shotcut:animOut">00:00:01.000</property>
    </filter>
  </producer>
  <producer id="producer75" in="00:00:00.000" out="00:00:51.600">
    <property name="length">00:00:51.633</property>
    <property name="eof">pause</property>
    <property name="resource">/home/xenvre/robot-code/optical-flow-6d-tracking-code/video/media/006_real_1.mp4</property>
    <property name="audio_index">-1</property>
    <property name="video_index">0</property>
    <property name="mute_on_pause">0</property>
    <property name="mlt_service">avformat-novalidate</property>
    <property name="seekable">1</property>
    <property name="aspect_ratio">1</property>
    <property name="creation_time">2021-05-22T11:36:01</property>
    <property name="shotcut:hash">b9306815a2220636b95381e709f1c0b7</property>
    <property name="ignore_points">0</property>
    <property name="shotcut:caption">006_real_1.mp4</property>
    <property name="global_feed">1</property>
    <property name="xml">was here</property>
    <filter id="filter18" out="00:00:08.733">
      <property name="start">1</property>
      <property name="level">00:00:00.000=0;00:00:00.967=1</property>
      <property name="mlt_service">brightness</property>
      <property name="shotcut:filter">fadeInBrightness</property>
      <property name="alpha">1</property>
      <property name="shotcut:animIn">00:00:01.000</property>
    </filter>
    <filter id="filter19" out="00:00:08.733">
      <property name="start">1</property>
      <property name="level">00:00:07.767=1;00:00:08.733=0</property>
      <property name="mlt_service">brightness</property>
      <property name="shotcut:filter">fadeOutBrightness</property>
      <property name="alpha">1</property>
      <property name="shotcut:animOut">00:00:01.000</property>
    </filter>
  </producer>
  <tractor id="tractor23" global_feed="1" in="00:00:00.000" out="00:00:00.633">
    <property name="shotcut:transition">lumaMix</property>
    <track producer="producer74" in="00:00:01.100" out="00:00:01.733"/>
    <track producer="producer75" in="00:00:00.000" out="00:00:00.633"/>
    <transition id="transition46" out="00:00:00.633">
      <property name="a_track">0</property>
      <property name="b_track">1</property>
      <property name="factory">loader</property>
      <property name="mlt_service">luma</property>
      <property name="alpha_over">1</property>
    </transition>
    <transition id="transition47" out="00:00:00.633">
      <property name="a_track">0</property>
      <property name="b_track">1</property>
      <property name="mlt_service">mix</property>
      <property name="start">-1</property>
      <property name="accepts_blanks">1</property>
    </transition>
  </tractor>
  <producer id="producer76" in="00:00:00.000" out="03:59:59.967">
    <property name="length">04:00:00.000</property>
    <property name="eof">pause</property>
    <property name="resource">/home/xenvre/robot-code/optical-flow-6d-tracking-code/video/media/slide_video/Slide1.PNG</property>
    <property name="ttl">1</property>
    <property name="aspect_ratio">1</property>
    <property name="progressive">1</property>
    <property name="seekable">1</property>
    <property name="mlt_service">qimage</property>
    <property name="creation_time">2021-05-22T07:48:42</property>
    <property name="shotcut:caption">Slide1.PNG</property>
    <property name="shotcut:hash">37875db4b13312de58adb1d452fb6d42</property>
    <property name="ignore_points">0</property>
    <property name="global_feed">1</property>
    <property name="xml">was here</property>
  </producer>
  <playlist id="playlist0">
    <property name="shotcut:video">1</property>
    <property name="shotcut:name">V1</property>
    <entry producer="producer6" in="00:00:00.000" out="00:00:04.967"/>
    <entry producer="producer7" in="00:00:00.000" out="00:00:01.967"/>
    <entry producer="producer8" in="00:00:00.000" out="00:00:06.967"/>
    <entry producer="producer9" in="00:00:00.000" out="00:00:03.000"/>
    <entry producer="producer10" in="00:00:00.000" out="00:00:01.967"/>
    <entry producer="producer11" in="00:00:00.000" out="00:00:03.000"/>
    <entry producer="producer12" in="00:00:00.000" out="00:00:04.967"/>
    <entry producer="producer13" in="00:00:00.000" out="00:00:04.967"/>
    <entry producer="producer14" in="00:00:00.000" out="00:00:04.967"/>
    <entry producer="producer15" in="00:00:00.000" out="00:00:04.000"/>
    <entry producer="producer16" in="00:00:00.300" out="00:00:09.467"/>
    <entry producer="producer17" in="00:00:00.000" out="00:00:02.967"/>
    <entry producer="producer18" in="00:00:10.567" out="00:00:17.000"/>
    <entry producer="producer19" in="00:00:00.000" out="00:00:00.033"/>
    <entry producer="tractor0" in="00:00:00.000" out="00:00:00.333"/>
    <entry producer="producer20" in="00:00:17.400" out="00:00:23.267"/>
    <entry producer="producer21" in="00:00:00.000" out="00:00:00.033"/>
    <entry producer="tractor1" in="00:00:00.000" out="00:00:00.333"/>
    <entry producer="producer22" in="00:00:26.633" out="00:00:35.133"/>
    <entry producer="producer23" in="00:00:00.000" out="00:00:00.033"/>
    <entry producer="tractor2" in="00:00:00.000" out="00:00:00.333"/>
    <entry producer="producer24" in="00:00:41.967" out="00:00:45.733"/>
    <entry producer="producer25" in="00:00:00.000" out="00:00:01.267"/>
    <entry producer="tractor3" in="00:00:00.000" out="00:00:00.400"/>
    <entry producer="producer26" in="00:00:18.067" out="00:00:25.400"/>
    <entry producer="producer27" in="00:00:00.000" out="00:00:00.033"/>
    <entry producer="tractor4" in="00:00:00.000" out="00:00:00.333"/>
    <entry producer="producer28" in="00:00:32.300" out="00:00:41.533"/>
    <entry producer="producer29" in="00:00:00.000" out="00:00:00.033"/>
    <entry producer="tractor5" in="00:00:00.000" out="00:00:00.333"/>
    <entry producer="producer30" in="00:00:42.567" out="00:00:46.933"/>
    <entry producer="producer31" in="00:00:06.567" out="00:00:06.967"/>
    <entry producer="producer32" in="00:02:52.267" out="00:03:00.333"/>
    <entry producer="producer33" in="00:00:00.000" out="00:00:01.700"/>
    <entry producer="tractor6" in="00:00:00.000" out="00:00:00.533"/>
    <entry producer="producer34" in="00:00:02.600" out="00:00:11.500"/>
    <entry producer="producer35" in="00:00:00.000" out="00:00:00.067"/>
    <entry producer="tractor7" in="00:00:00.000" out="00:00:00.300"/>
    <entry producer="producer36" in="00:00:18.867" out="00:00:24.133"/>
    <entry producer="producer37" in="00:00:00.000" out="00:00:00.067"/>
    <entry producer="tractor8" in="00:00:00.000" out="00:00:00.300"/>
    <entry producer="producer38" in="00:00:41.900" out="00:00:48.000"/>
    <entry producer="producer39" in="00:00:00.000" out="00:00:02.967"/>
    <entry producer="producer40" in="00:00:10.567" out="00:00:17.000"/>
    <entry producer="producer41" in="00:00:00.000" out="00:00:00.033"/>
    <entry producer="tractor9" in="00:00:00.000" out="00:00:00.333"/>
    <entry producer="producer42" in="00:00:17.400" out="00:00:23.267"/>
    <entry producer="producer43" in="00:00:00.000" out="00:00:00.033"/>
    <entry producer="tractor10" in="00:00:00.000" out="00:00:00.333"/>
    <entry producer="producer44" in="00:00:26.633" out="00:00:35.133"/>
    <entry producer="producer45" in="00:00:00.000" out="00:00:00.033"/>
    <entry producer="tractor11" in="00:00:00.000" out="00:00:00.333"/>
    <entry producer="producer46" in="00:00:41.967" out="00:00:45.733"/>
    <entry producer="producer47" in="00:00:00.000" out="00:00:01.267"/>
    <entry producer="tractor12" in="00:00:00.000" out="00:00:00.400"/>
    <entry producer="producer48" in="00:00:18.067" out="00:00:25.400"/>
    <entry producer="producer49" in="00:00:00.000" out="00:00:00.033"/>
    <entry producer="tractor13" in="00:00:00.000" out="00:00:00.333"/>
    <entry producer="producer50" in="00:00:32.300" out="00:00:41.533"/>
    <entry producer="producer51" in="00:00:00.000" out="00:00:00.033"/>
    <entry producer="tractor14" in="00:00:00.000" out="00:00:00.333"/>
    <entry producer="producer52" in="00:00:42.567" out="00:00:46.933"/>
    <entry producer="producer53" in="00:00:01.900" out="00:00:02.300"/>
    <entry producer="producer54" in="00:02:52.267" out="00:03:00.333"/>
    <entry producer="producer55" in="00:00:00.000" out="00:00:01.700"/>
    <entry producer="tractor15" in="00:00:00.000" out="00:00:00.533"/>
    <entry producer="producer56" in="00:00:02.600" out="00:00:11.500"/>
    <entry producer="producer57" in="00:00:00.000" out="00:00:00.067"/>
    <entry producer="tractor16" in="00:00:00.000" out="00:00:00.300"/>
    <entry producer="producer58" in="00:00:18.867" out="00:00:24.133"/>
    <entry producer="producer59" in="00:00:00.000" out="00:00:00.067"/>
    <entry producer="tractor17" in="00:00:00.000" out="00:00:00.300"/>
    <entry producer="producer60" in="00:00:41.900" out="00:00:48.000"/>
    <entry producer="producer61" in="00:00:00.000" out="00:00:02.967"/>
    <entry producer="producer62" in="00:00:01.800" out="00:00:08.833"/>
    <entry producer="producer63" in="00:00:00.000" out="00:00:00.000"/>
    <entry producer="tractor18" in="00:00:00.000" out="00:00:00.367"/>
    <entry producer="producer64" in="00:00:12.600" out="00:00:19.867"/>
    <entry producer="producer65" in="00:00:00.000" out="00:00:00.100"/>
    <entry producer="tractor19" in="00:00:00.000" out="00:00:00.267"/>
    <entry producer="producer66" in="00:00:42.533" out="00:00:49.467"/>
    <entry producer="producer67" in="00:00:00.000" out="00:00:01.067"/>
    <entry producer="tractor20" in="00:00:00.000" out="00:00:00.633"/>
    <entry producer="producer68" in="00:00:00.667" out="00:00:14.767"/>
    <entry producer="producer69" in="00:00:00.000" out="00:00:01.967"/>
    <entry producer="producer70" in="00:00:01.800" out="00:00:08.833"/>
    <entry producer="tractor21" in="00:00:00.000" out="00:00:00.367"/>
    <entry producer="producer71" in="00:00:12.600" out="00:00:19.867"/>
    <entry producer="producer72" in="00:00:00.000" out="00:00:00.100"/>
    <entry producer="tractor22" in="00:00:00.000" out="00:00:00.267"/>
    <entry producer="producer73" in="00:00:42.533" out="00:00:49.467"/>
    <entry producer="producer74" in="00:00:00.000" out="00:00:01.067"/>
    <entry producer="tractor23" in="00:00:00.000" out="00:00:00.633"/>
    <entry producer="producer75" in="00:00:00.667" out="00:00:08.733"/>
    <entry producer="producer76" in="00:00:00.000" out="00:00:03.133"/>
  </playlist>
  <producer id="producer77" in="00:00:00.000" out="00:00:09.167">
    <property name="length">00:00:09.200</property>
    <property name="eof">pause</property>
    <property name="resource">/home/xenvre/robot-code/optical-flow-6d-tracking-code/video/media/grid.mp4</property>
    <property name="audio_index">-1</property>
    <property name="video_index">0</property>
    <property name="mute_on_pause">0</property>
    <property name="mlt_service">avformat-novalidate</property>
    <property name="seekable">1</property>
    <property name="aspect_ratio">1</property>
    <property name="creation_time">2021-05-22T09:24:09</property>
    <property name="shotcut:hash">faf811285a81469e9852158ddb3b61ba</property>
    <property name="ignore_points">0</property>
    <property name="shotcut:caption">grid.mp4</property>
    <property name="global_feed">1</property>
    <property name="xml">was here</property>
    <filter id="filter20" out="00:00:09.167">
      <property name="mlt_service">crop</property>
      <property name="use_profile">1</property>
      <property name="center">0</property>
      <property name="center_bias">0</property>
      <property name="top">163</property>
      <property name="bottom">196</property>
      <property name="left">0</property>
      <property name="right">0</property>
    </filter>
    <filter id="filter21" out="00:00:09.167">
      <property name="background">color:#00000000</property>
      <property name="mlt_service">affine</property>
      <property name="shotcut:filter">affineSizePosition</property>
      <property name="transition.fill">1</property>
      <property name="transition.distort">0</property>
      <property name="transition.rect">0 100 1920 1080 1</property>
      <property name="transition.valign">middle</property>
      <property name="transition.halign">center</property>
      <property name="shotcut:animIn">00:00:00.000</property>
      <property name="shotcut:animOut">00:00:00.000</property>
      <property name="transition.threads">0</property>
    </filter>
  </producer>
  <producer id="producer78" in="00:00:00.000" out="03:59:59.967">
    <property name="length">04:00:00.000</property>
    <property name="eof">pause</property>
    <property name="resource">#00000000</property>
    <property name="aspect_ratio">1</property>
    <property name="mlt_service">color</property>
    <property name="mlt_image_format">rgb24a</property>
    <property name="shotcut:caption">transparent</property>
    <property name="shotcut:detail">transparent</property>
    <property name="ignore_points">0</property>
    <property name="global_feed">1</property>
    <property name="xml">was here</property>
    <property name="seekable">1</property>
    <filter id="filter22" out="00:00:08.067">
      <property name="argument"></property>
      <property name="geometry">1596 1021 319 55 1</property>
      <property name="family">Sans</property>
      <property name="size">48</property>
      <property name="weight">400</property>
      <property name="style">normal</property>
      <property name="fgcolour">0x000000ff</property>
      <property name="bgcolour">#00000000</property>
      <property name="olcolour">0x00000000</property>
      <property name="pad">0</property>
      <property name="halign">left</property>
      <property name="valign">top</property>
      <property name="outline">0</property>
      <property name="pixel_ratio">1</property>
      <property name="mlt_service">qtext</property>
      <property name="shotcut:filter">richText</property>
      <property name="html">&lt;!DOCTYPE HTML PUBLIC &quot;-//W3C//DTD HTML 4.0//EN&quot; &quot;http://www.w3.org/TR/REC-html40/strict.dtd&quot;&gt;
&lt;html&gt;&lt;head&gt;&lt;meta name=&quot;qrichtext&quot; content=&quot;1&quot; /&gt;&lt;style type=&quot;text/css&quot;&gt;
p, li { white-space: pre-wrap; }
&lt;/style&gt;&lt;/head&gt;&lt;body style=&quot; font-family:'Sans Serif'; font-size:9pt; font-weight:400; font-style:normal;&quot;&gt;
&lt;p style=&quot; margin-top:0px; margin-bottom:0px; margin-left:0px; margin-right:0px; -qt-block-indent:0; text-indent:0px;&quot;&gt;&lt;span style=&quot; font-family:'Times New Roman'; font-size:35pt; font-weight:600; color:#ff0004;&quot;&gt;Replay at 0.25x&lt;/span&gt;&lt;/p&gt;&lt;/body&gt;&lt;/html&gt;</property>
      <property name="shotcut:animIn">00:00:00.000</property>
      <property name="shotcut:animOut">00:00:00.000</property>
    </filter>
  </producer>
  <producer id="producer79" in="00:00:00.000" out="03:59:59.967">
    <property name="length">04:00:00.000</property>
    <property name="eof">pause</property>
    <property name="resource">#00000000</property>
    <property name="aspect_ratio">1</property>
    <property name="mlt_service">color</property>
    <property name="mlt_image_format">rgb24a</property>
    <property name="shotcut:caption">transparent</property>
    <property name="shotcut:detail">transparent</property>
    <property name="ignore_points">0</property>
    <property name="global_feed">1</property>
    <property name="xml">was here</property>
    <property name="seekable">1</property>
    <filter id="filter23" out="00:00:08.067">
      <property name="argument"></property>
      <property name="geometry">1596 1021 319 55 1</property>
      <property name="family">Sans</property>
      <property name="size">48</property>
      <property name="weight">400</property>
      <property name="style">normal</property>
      <property name="fgcolour">0x000000ff</property>
      <property name="bgcolour">#00000000</property>
      <property name="olcolour">0x00000000</property>
      <property name="pad">0</property>
      <property name="halign">left</property>
      <property name="valign">top</property>
      <property name="outline">0</property>
      <property name="pixel_ratio">1</property>
      <property name="mlt_service">qtext</property>
      <property name="shotcut:filter">richText</property>
      <property name="html">&lt;!DOCTYPE HTML PUBLIC &quot;-//W3C//DTD HTML 4.0//EN&quot; &quot;http://www.w3.org/TR/REC-html40/strict.dtd&quot;&gt;
&lt;html&gt;&lt;head&gt;&lt;meta name=&quot;qrichtext&quot; content=&quot;1&quot; /&gt;&lt;style type=&quot;text/css&quot;&gt;
p, li { white-space: pre-wrap; }
&lt;/style&gt;&lt;/head&gt;&lt;body style=&quot; font-family:'Sans Serif'; font-size:9pt; font-weight:400; font-style:normal;&quot;&gt;
&lt;p style=&quot; margin-top:0px; margin-bottom:0px; margin-left:0px; margin-right:0px; -qt-block-indent:0; text-indent:0px;&quot;&gt;&lt;span style=&quot; font-family:'Times New Roman'; font-size:35pt; font-weight:600; color:#ff0004;&quot;&gt;Replay at 0.25x&lt;/span&gt;&lt;/p&gt;&lt;/body&gt;&lt;/html&gt;</property>
      <property name="shotcut:animIn">00:00:00.000</property>
      <property name="shotcut:animOut">00:00:00.000</property>
    </filter>
  </producer>
  <playlist id="playlist1">
    <property name="shotcut:video">1</property>
    <property name="shotcut:name">V2</property>
    <blank length="00:00:41.100"/>
    <entry producer="producer77" in="00:00:00.000" out="00:00:09.167"/>
    <blank length="00:00:53.067"/>
    <entry producer="producer78" in="00:00:00.000" out="00:00:08.067"/>
    <blank length="00:01:16.600"/>
    <entry producer="producer79" in="00:00:00.000" out="00:00:08.067"/>
  </playlist>
  <playlist id="playlist2">
    <property name="shotcut:video">1</property>
    <property name="shotcut:name">V3</property>
    <blank length="00:00:00.033"/>
  </playlist>
  <tractor id="tractor24" title="Shotcut version ARCH-21.03.21" global_feed="1" in="00:00:00.000" out="00:04:57.967">
    <property name="shotcut">1</property>
    <property name="shotcut:projectAudioChannels">2</property>
    <property name="shotcut:projectFolder">1</property>
    <property name="shotcut:scaleFactor">2.1176</property>
    <track producer="background"/>
    <track producer="playlist0"/>
    <track producer="playlist1"/>
    <track producer="playlist2"/>
    <transition id="transition48">
      <property name="a_track">0</property>
      <property name="b_track">1</property>
      <property name="mlt_service">mix</property>
      <property name="always_active">1</property>
      <property name="sum">1</property>
    </transition>
    <transition id="transition49">
      <property name="a_track">0</property>
      <property name="b_track">1</property>
      <property name="version">0.9</property>
      <property name="mlt_service">frei0r.cairoblend</property>
      <property name="threads">0</property>
      <property name="disable">1</property>
    </transition>
    <transition id="transition50">
      <property name="a_track">0</property>
      <property name="b_track">2</property>
      <property name="mlt_service">mix</property>
      <property name="always_active">1</property>
      <property name="sum">1</property>
    </transition>
    <transition id="transition51">
      <property name="a_track">1</property>
      <property name="b_track">2</property>
      <property name="version">0.9</property>
      <property name="mlt_service">frei0r.cairoblend</property>
      <property name="threads">0</property>
      <property name="disable">0</property>
    </transition>
    <transition id="transition52">
      <property name="a_track">0</property>
      <property name="b_track">3</property>
      <property name="mlt_service">mix</property>
      <property name="always_active">1</property>
      <property name="sum">1</property>
    </transition>
    <transition id="transition53">
      <property name="a_track">1</property>
      <property name="b_track">3</property>
      <property name="version">0.9</property>
      <property name="mlt_service">frei0r.cairoblend</property>
      <property name="threads">0</property>
      <property name="disable">0</property>
    </transition>
  </tractor>
</mlt>
